<?xml version="1.0" encoding="UTF-8" standalone="no"?>
<!-- Created with Inkscape (http://www.inkscape.org/) -->

<svg
   xmlns:dc="http://purl.org/dc/elements/1.1/"
   xmlns:cc="http://creativecommons.org/ns#"
   xmlns:rdf="http://www.w3.org/1999/02/22-rdf-syntax-ns#"
   xmlns:svg="http://www.w3.org/2000/svg"
   xmlns="http://www.w3.org/2000/svg"
   version="1.1"
   width="60"
   height="73.75"
   id="svg2985"
   xml:space="preserve"><metadata
     id="metadata2991"><rdf:RDF><cc:Work
         rdf:about=""><dc:format>image/svg+xml</dc:format><dc:type
           rdf:resource="http://purl.org/dc/dcmitype/StillImage" /><dc:title></dc:title></cc:Work></rdf:RDF></metadata><defs
     id="defs2989" /><g
     transform="matrix(1.25,0,0,-1.25,0,73.75)"
     id="g2993"><g
       transform="scale(0.1,0.1)"
       id="g2995"><path
         d="m 224.699,400.738 0,-3.863 -22.722,0 -7.247,-5.113 -14.914,0 0,-3.797 -14.918,4.969 14.918,6.421 0,-3.8 13.391,0 7.25,5.183 24.242,0"
         id="path2997"
         style="fill:#615e5e;fill-opacity:1;fill-rule:evenodd;stroke:none" /><path
         d="m 224.043,392.383 1.066,-3.711 -18.679,-5.356 -5.559,-6.914 -14.336,-4.113 1.047,-3.644 -15.711,0.664 12.567,10.285 1.05,-3.656 12.875,3.691 5.543,6.984 20.137,5.77"
         id="path2999"
         style="fill:#615e5e;fill-opacity:1;fill-rule:nonzero;stroke:none" /><path
         d="m 227.328,383.363 1.758,-3.441 -17.316,-8.824 -4.133,-7.844 -13.293,-6.77 1.722,-3.382 -15.546,-2.344 10.375,12.492 1.726,-3.387 11.934,6.082 4.109,7.907 18.664,9.511"
         id="path3001"
         style="fill:#615e5e;fill-opacity:1;fill-rule:nonzero;stroke:none" /><path
         d="m 254.141,400.738 0,-3.863 22.722,0 7.246,-5.113 14.918,0 0,-3.797 14.914,4.969 -14.914,6.421 0,-3.8 -13.394,0 -7.254,5.183 -24.238,0"
         id="path3003"
         style="fill:#615e5e;fill-opacity:1;fill-rule:evenodd;stroke:none" /><path
         d="m 254.797,392.383 -1.067,-3.711 18.68,-5.356 5.555,-6.914 14.34,-4.113 -1.047,-3.644 15.711,0.664 -12.571,10.285 -1.046,-3.656 -12.875,3.691 -5.543,6.984 -20.137,5.77"
         id="path3005"
         style="fill:#615e5e;fill-opacity:1;fill-rule:nonzero;stroke:none" /><path
         d="m 251.508,383.363 -1.754,-3.441 17.316,-8.824 4.133,-7.844 13.293,-6.77 -1.723,-3.382 15.547,-2.344 -10.375,12.492 -1.726,-3.387 -11.934,6.082 -4.109,7.907 -18.668,9.511"
         id="path3007"
         style="fill:#615e5e;fill-opacity:1;fill-rule:nonzero;stroke:none" /><path
         d="m 212.773,476.234 c 0.387,-1.988 2.313,-3.289 4.305,-2.902 1.988,0.387 3.285,2.313 2.899,4.301 -0.383,1.988 -2.313,3.289 -4.301,2.902 -1.988,-0.387 -3.289,-2.312 -2.903,-4.301 z m 44.829,0.313 c 0.386,-1.988 2.312,-3.285 4.3,-2.899 1.989,0.383 3.289,2.313 2.903,4.301 -0.387,1.989 -2.313,3.289 -4.301,2.903 -1.992,-0.391 -3.289,-2.313 -2.902,-4.305 z m 43.878,-10.535 c 0.387,-1.989 2.313,-3.289 4.305,-2.903 1.985,0.387 3.285,2.313 2.899,4.301 -0.387,1.988 -2.313,3.289 -4.301,2.903 -1.988,-0.387 -3.289,-2.313 -2.903,-4.301 z m -131.531,0.207 c 0.387,-1.989 2.313,-3.285 4.301,-2.899 1.988,0.387 3.289,2.313 2.902,4.301 -0.386,1.988 -2.312,3.289 -4.3,2.902 -1.989,-0.386 -3.289,-2.312 -2.903,-4.304 z m 9.274,62.035 c -11.563,4.781 -25.227,0.66 -32.078,-10.305 -3.856,-6.168 -4.817,-13.324 -3.258,-19.883 10.375,6.5 22.211,10.664 34.144,12.739 -1.707,5.5 -1.558,12 1.192,17.449 z m 118.836,-0.074 c 2.746,-5.45 2.898,-11.95 1.191,-17.45 11.93,-2.074 23.77,-6.238 34.141,-12.738 1.566,6.559 0.601,13.715 -3.254,19.883 -6.852,10.965 -20.512,15.086 -32.078,10.305 z m -68.536,8.492 c -11.875,9.656 -30.398,6.551 -38.601,-5.805 -4.02,-6.062 -4.817,-13.324 -3.254,-19.883 11.457,6.996 29.242,12.731 41.117,13.961 0.246,6.063 0.246,6.063 0.738,11.727 z m 19.336,-0.152 c 0.493,-5.665 0.493,-5.665 0.743,-11.723 11.871,-1.234 29.66,-6.969 41.113,-13.961 1.562,6.559 0.765,13.82 -3.254,19.879 -8.199,12.359 -26.727,15.465 -38.602,5.805 z m 88.305,-55.575 -8.047,0 -4.566,-8.797 -5.906,8.059 -7.997,-1.363 0.04,-8.117 8.875,-4.473 c -4.368,-4.367 -12.321,-7.883 -18.688,-6 -8.699,2.57 -12.23,7.332 -13.965,15.223 l 8.871,-5.942 6.403,4.457 -2.786,7.375 -10.406,0.696 5.051,8.648 -4.348,6.855 -7.367,-3.261 -0.723,-9.985 -8.585,5.114 -6.825,-4.379 3.207,-7.453 9.914,-0.653 c -4.066,-3.992 -11.679,-7.062 -17.859,-7.062 -8.262,0 -15.379,4.84 -18.238,12.086 l 9.707,-2.278 5.246,6.192 -5.246,6.183 -9.707,-2.379 2.23,9.758 -6.094,5.274 -6.16,-5.285 2.301,-9.747 -10.156,2.379 -4.82,-6.242 4.82,-6.133 10.156,2.278 c -2.836,-7.27 -10.453,-12.285 -18.715,-12.285 -6.176,0 -14.011,3.445 -18.285,7.218 l 9.867,1.172 2.817,7.61 -7.047,4.019 -8.309,-5.559 -1.238,9.934 -7.531,2.871 -3.981,-7.07 5.496,-8.375 -10.359,-1.235 -2.395,-7.515 6.629,-4.113 8.766,5.609 c -2.137,-8.024 -5.926,-12.141 -13.848,-14.199 -6.484,-1.688 -14.246,1.488 -18.59,5.941 l 8.868,4.477 0.043,8.113 -7.996,1.367 -5.907,-8.062 -4.566,9.054 -8.18,0 c -8.738,11.614 -9.984,27.633 -1.824,40.696 9.453,15.129 28.258,20.855 44.238,14.375 9.891,14.164 28.336,19.218 43.906,12.519 -1.554,3.731 -1.339,8.133 0.965,11.82 1.871,3 4.774,4.965 7.961,5.719 l 0.02,3.864 -5.336,0 0,6.074 5.324,0.004 -0.008,5.304 6.074,0 0,-5.308 5.329,0 0,-6.074 -5.332,0 0.019,-3.883 c 1.297,-0.317 2.547,-0.844 3.738,-1.59 5.383,-3.363 7.43,-10.043 5.153,-15.735 10.437,4.325 22.742,3.711 33.054,-2.73 4.215,-2.633 7.754,-5.996 10.45,-9.82 10.382,4.215 22.515,3.558 32.746,-2.832 16.941,-10.586 22.093,-32.907 11.508,-49.848 -0.551,-0.883 -1.247,-1.742 -1.856,-2.555"
         id="path3009"
         style="fill:#615e5e;fill-opacity:1;fill-rule:evenodd;stroke:none" /><path
         d="m 212.773,476.234 c 0.387,-1.988 2.313,-3.289 4.305,-2.902 1.988,0.387 3.285,2.313 2.899,4.301 -0.383,1.988 -2.313,3.289 -4.301,2.902 -1.988,-0.387 -3.289,-2.312 -2.903,-4.301 z"
         id="path3011"
         style="fill:none;stroke:#615e5e;stroke-width:0.56699997;stroke-linecap:butt;stroke-linejoin:miter;stroke-miterlimit:3.8636899;stroke-opacity:1;stroke-dasharray:none" /><path
         d="m 257.602,476.547 c 0.386,-1.988 2.312,-3.285 4.3,-2.899 1.989,0.383 3.289,2.313 2.903,4.301 -0.387,1.989 -2.313,3.289 -4.301,2.903 -1.992,-0.391 -3.289,-2.313 -2.902,-4.305 z"
         id="path3013"
         style="fill:none;stroke:#615e5e;stroke-width:0.56699997;stroke-linecap:butt;stroke-linejoin:miter;stroke-miterlimit:3.8636899;stroke-opacity:1;stroke-dasharray:none" /><path
         d="m 301.48,466.012 c 0.387,-1.989 2.313,-3.289 4.305,-2.903 1.985,0.387 3.285,2.313 2.899,4.301 -0.387,1.988 -2.313,3.289 -4.301,2.903 -1.988,-0.387 -3.289,-2.313 -2.903,-4.301 z"
         id="path3015"
         style="fill:none;stroke:#615e5e;stroke-width:0.56699997;stroke-linecap:butt;stroke-linejoin:miter;stroke-miterlimit:3.8636899;stroke-opacity:1;stroke-dasharray:none" /><path
         d="m 169.949,466.219 c 0.387,-1.989 2.313,-3.285 4.301,-2.899 1.988,0.387 3.289,2.313 2.902,4.301 -0.386,1.988 -2.312,3.289 -4.3,2.902 -1.989,-0.386 -3.289,-2.312 -2.903,-4.304 z"
         id="path3017"
         style="fill:none;stroke:#615e5e;stroke-width:0.56699997;stroke-linecap:butt;stroke-linejoin:miter;stroke-miterlimit:3.8636899;stroke-opacity:1;stroke-dasharray:none" /><path
         d="m 179.223,528.254 c -11.563,4.781 -25.227,0.66 -32.078,-10.305 -3.856,-6.168 -4.817,-13.324 -3.258,-19.883 10.375,6.5 22.211,10.664 34.144,12.739 -1.707,5.5 -1.558,12 1.192,17.449 z"
         id="path3019"
         style="fill:none;stroke:#615e5e;stroke-width:0.56699997;stroke-linecap:butt;stroke-linejoin:miter;stroke-miterlimit:3.8636899;stroke-opacity:1;stroke-dasharray:none" /><path
         d="m 298.059,528.18 c 2.746,-5.45 2.898,-11.95 1.191,-17.45 11.93,-2.074 23.77,-6.238 34.141,-12.738 1.566,6.559 0.601,13.715 -3.254,19.883 -6.852,10.965 -20.512,15.086 -32.078,10.305 z"
         id="path3021"
         style="fill:none;stroke:#615e5e;stroke-width:0.56699997;stroke-linecap:butt;stroke-linejoin:miter;stroke-miterlimit:3.8636899;stroke-opacity:1;stroke-dasharray:none" /><path
         d="m 229.523,536.672 c -11.875,9.656 -30.398,6.551 -38.601,-5.805 -4.02,-6.062 -4.817,-13.324 -3.254,-19.883 11.457,6.996 29.242,12.731 41.117,13.961 0.246,6.063 0.246,6.063 0.738,11.727 z"
         id="path3023"
         style="fill:none;stroke:#615e5e;stroke-width:0.56699997;stroke-linecap:butt;stroke-linejoin:miter;stroke-miterlimit:3.8636899;stroke-opacity:1;stroke-dasharray:none" /><path
         d="m 248.859,536.52 c 0.493,-5.665 0.493,-5.665 0.743,-11.723 11.871,-1.234 29.66,-6.969 41.113,-13.961 1.562,6.559 0.765,13.82 -3.254,19.879 -8.199,12.359 -26.727,15.465 -38.602,5.805 z"
         id="path3025"
         style="fill:none;stroke:#615e5e;stroke-width:0.56699997;stroke-linecap:butt;stroke-linejoin:miter;stroke-miterlimit:3.8636899;stroke-opacity:1;stroke-dasharray:none" /><path
         d="m 337.164,480.945 -8.047,0 -4.566,-8.797 -5.906,8.059 -7.997,-1.363 0.04,-8.117 8.875,-4.473 c -4.368,-4.367 -12.321,-7.883 -18.688,-6 -8.699,2.57 -12.23,7.332 -13.965,15.223 l 8.871,-5.942 6.403,4.457 -2.786,7.375 -10.406,0.696 5.051,8.648 -4.348,6.855 -7.367,-3.261 -0.723,-9.985 -8.585,5.114 -6.825,-4.379 3.207,-7.453 9.914,-0.653 c -4.066,-3.992 -11.679,-7.062 -17.859,-7.062 -8.262,0 -15.379,4.84 -18.238,12.086 l 9.707,-2.278 5.246,6.192 -5.246,6.183 -9.707,-2.379 2.23,9.758 -6.094,5.274 -6.16,-5.285 2.301,-9.747 -10.156,2.379 -4.82,-6.242 4.82,-6.133 10.156,2.278 c -2.836,-7.27 -10.453,-12.285 -18.715,-12.285 -6.176,0 -14.011,3.445 -18.285,7.218 l 9.867,1.172 2.817,7.61 -7.047,4.019 -8.309,-5.559 -1.238,9.934 -7.531,2.871 -3.981,-7.07 5.496,-8.375 -10.359,-1.235 -2.395,-7.515 6.629,-4.113 8.766,5.609 c -2.137,-8.024 -5.926,-12.141 -13.848,-14.199 -6.484,-1.688 -14.246,1.488 -18.59,5.941 l 8.868,4.477 0.043,8.113 -7.996,1.367 -5.907,-8.062 -4.566,9.054 -8.18,0 c -8.738,11.614 -9.984,27.633 -1.824,40.696 9.453,15.129 28.258,20.855 44.238,14.375 9.891,14.164 28.336,19.218 43.906,12.519 -1.554,3.731 -1.339,8.133 0.965,11.82 1.871,3 4.774,4.965 7.961,5.719 l 0.02,3.864 -5.336,0 0,6.074 5.324,0.004 -0.008,5.304 6.074,0 0,-5.308 5.329,0 0,-6.074 -5.332,0 0.019,-3.883 c 1.297,-0.317 2.547,-0.844 3.738,-1.59 5.383,-3.363 7.43,-10.043 5.153,-15.735 10.437,4.325 22.742,3.711 33.054,-2.73 4.215,-2.633 7.754,-5.996 10.45,-9.82 10.382,4.215 22.515,3.558 32.746,-2.832 16.941,-10.586 22.093,-32.907 11.508,-49.848 -0.551,-0.883 -1.247,-1.742 -1.856,-2.555 z"
         id="path3027"
         style="fill:none;stroke:#615e5e;stroke-width:0.56699997;stroke-linecap:butt;stroke-linejoin:miter;stroke-miterlimit:3.8636899;stroke-opacity:1;stroke-dasharray:none" /><path
         d="m 182.566,424.543 c 13.735,3.664 34.051,5.98 56.723,5.977 22.57,-0.004 42.809,-2.379 56.539,-6.016 -13.734,-3.664 -34.066,-5.984 -56.754,-5.981 -22.554,0 -42.847,2.391 -56.508,6.02"
         id="path3029"
         style="fill:#615e5e;fill-opacity:1;fill-rule:nonzero;stroke:none" /><path
         d="m 182.566,424.543 c 13.735,3.664 34.051,5.98 56.723,5.977 22.57,-0.004 42.809,-2.379 56.539,-6.016 -13.734,-3.664 -34.066,-5.984 -56.754,-5.981 -22.554,0 -42.847,2.391 -56.508,6.02 z"
         id="path3031"
         style="fill:none;stroke:#615e5e;stroke-width:0.56699997;stroke-linecap:butt;stroke-linejoin:miter;stroke-miterlimit:3.8636899;stroke-opacity:1;stroke-dasharray:none" /><path
         d="m 300.586,430.078 c -13.617,4.442 -36.031,7.344 -61.387,7.344 -25.554,0.004 -48.117,-2.938 -61.633,-7.434 l -4.48,11.293 c 12.602,5.43 37.477,9.121 66.102,9.117 28.269,-0.003 52.816,-3.562 65.632,-8.882 l -4.234,-11.438"
         id="path3033"
         style="fill:#615e5e;fill-opacity:1;fill-rule:nonzero;stroke:none" /><path
         d="m 300.586,430.078 c -13.617,4.442 -36.031,7.344 -61.387,7.344 -25.554,0.004 -48.117,-2.938 -61.633,-7.434 l -4.48,11.293 c 12.602,5.43 37.477,9.121 66.102,9.117 28.269,-0.003 52.816,-3.562 65.632,-8.882 l -4.234,-11.438 z"
         id="path3035"
         style="fill:none;stroke:#615e5e;stroke-width:0.56699997;stroke-linecap:butt;stroke-linejoin:miter;stroke-miterlimit:3.8636899;stroke-opacity:1;stroke-dasharray:none" /><path
         d="m 239.113,480.184 c 3.614,-9.012 12.043,-15.227 22.344,-15.227 7.867,0 16.828,4.52 21.887,9.785 1.008,-9.695 6.527,-17.558 16.676,-19.347 5.187,-0.915 10.566,0 14.992,2.093 l -7.176,-8.078 c -15.527,5.715 -40.543,8.328 -68.762,8.328 -28.191,0.004 -53.176,-2.597 -68.703,-8.297 l -7.441,7.977 c 4.57,-2.32 9.855,-3.18 15.293,-2.223 10.144,1.789 15.691,8.547 17.695,18.051 4.477,-5.766 12.996,-8.488 20.863,-8.488 10.301,0 18.715,6.414 22.332,15.426"
         id="path3037"
         style="fill:#615e5e;fill-opacity:1;fill-rule:evenodd;stroke:none" /><path
         d="m 239.113,480.184 c 3.614,-9.012 12.043,-15.227 22.344,-15.227 7.867,0 16.828,4.52 21.887,9.785 1.008,-9.695 6.527,-17.558 16.676,-19.347 5.187,-0.915 10.566,0 14.992,2.093 l -7.176,-8.078 c -15.527,5.715 -40.543,8.328 -68.762,8.328 -28.191,0.004 -53.176,-2.597 -68.703,-8.297 l -7.441,7.977 c 4.57,-2.32 9.855,-3.18 15.293,-2.223 10.144,1.789 15.691,8.547 17.695,18.051 4.477,-5.766 12.996,-8.488 20.863,-8.488 10.301,0 18.715,6.414 22.332,15.426 z"
         id="path3039"
         style="fill:none;stroke:#615e5e;stroke-width:0.56699997;stroke-linecap:butt;stroke-linejoin:miter;stroke-miterlimit:3.8636899;stroke-opacity:1;stroke-dasharray:none" /><path
         d="m 155.215,48.0078 c 4.043,-4.1445 7.781,-8.4609 7.781,-12.707 l -0.445,-3.4141 c -0.082,-0.9531 -1.266,-1.7969 -1.266,-2.832 0,-1.1875 0.461,-2.6524 1.094,-4.0781 l 2.242,0 c 0.328,0 1.992,0.6093 2.93,0.8906 1.347,0.4101 3.14,1.3867 4.176,2.0625 3.488,2.2344 7.464,5.0703 11.195,5.0703 l 2.105,-0.2656 c 2.239,0 8.094,-1.9883 8.801,-2.1328 1.957,-0.3985 5.602,-0.8907 7.137,-0.6602 2.223,0.2149 5.105,0.5938 6.816,2.3359 1.696,1.711 3.59,3.4258 5.004,5.2188 1.067,1.3477 1.996,3.0664 3.551,5.1797 1.371,1.8125 2.973,3.6406 4.699,5.3476 l 26.328,-0.0156 c -2.035,-2 -4.472,-3.6172 -6.75,-4.1211 0.387,-1.5 1.129,-2.9219 1.657,-4.2695 2.285,-5.8516 6.261,-11.668 11.671,-16.5508 5.149,-4.6523 11.008,-7.6133 18.231,-8.3516 10.359,0 13.613,18.5469 23.086,18.5469 5.16,0 9.867,-6.9804 13.664,-11.1094 0.574,-0.6406 2.449,-1.7812 3.305,-1.7812 1.25,0 3.933,1.3281 4.406,2.0391 -1.129,1.7773 -5.656,6.875 -5.656,8.8125 0,3.5859 6,6.9765 6.871,11.3007 0.363,1.8516 0.816,3.6875 0.851,5.4961 l 5.125,-0.0117 c -1.113,-3.5312 -2.019,-7.0781 -2.636,-10.3515 -0.477,-2.5821 -0.743,-2.3204 -0.743,-4 -0.261,-1.5118 -0.273,-2.3477 0.024,-2.7891 1.578,-2.2695 3.613,-4.5664 3.965,-7.1406 l 0.089,-2.1719 c 0,-1.5781 -2.957,-5.0234 -4.109,-5.6797 -3.055,-2.3477 -6.254,-3.1797 -8.711,-3.5273 -1.719,0.1328 -1.797,0.1523 -1.961,0 -1.183,0.2968 -3.051,0.7695 -4.101,1.6406 -3.832,3.1914 -9.149,11.9062 -13.606,11.9062 -4.242,0 -7.426,-7.2695 -8.793,-9.3086 -0.558,-0.8242 -1.086,-1.9921 -1.66,-2.7656 -2.746,-3.6484 -7.297,-5.35155 -10.918,-5.81249 -0.137,0 -0.266,0.12891 -3.16,0 C 255,8.91016 240.656,21.1758 237.793,30.4141 c -0.211,0.707 -0.621,1.4609 -0.918,2.2343 -0.609,1.5625 -1.137,3.1563 -1.609,4.6954 -1.977,-2.7071 -3.575,-4.9454 -5.828,-7.6094 -2.68,-3.1563 -5.11,-6.3906 -7.493,-9.7305 -0.886,-1.25 -1.664,-2.7187 -2.718,-3.9023 -1.332,-1.5118 -3.157,-3.2344 -5.098,-4.3047 -2.547,-1.4141 -5.289,-2.24612 -7.918,-2.34377 -4.543,-0.17969 -6.566,0.42968 -9.492,1.15237 -3.258,0.8047 -5.946,2.5664 -9.348,3.8984 -0.609,0.2305 -1.754,0.2109 -2.078,0.2109 l -10.262,-0.3945 -7.351,0 -3.442,0.3125 c -3.929,0.4766 -9.722,1.1055 -11.285,4.461 l -0.484,2.8554 c 0.48,2.3946 3.16,5.9844 3.16,8.0235 0,1.5976 -0.996,3.2734 -1.934,5.0351 -2.773,5.168 -7.715,8.6797 -11.183,13.0352 l 12.703,-0.0352 z m 160.394,0 c -0.179,-0.207 -0.347,-0.3398 -0.496,-0.4531 -2.55,-1.9922 -6.152,-4.5938 -8.937,-4.9531 -4.074,0.1836 -6.328,2.4648 -8.543,5.3359 l 17.976,0.0703 z M 217.914,31.9492 c -0.332,0 -2.094,-0.9687 -3.031,-1.625 l -2.399,-1.8906 c -4.078,-2.7813 -7.117,-4.7734 -11.015,-4.7734 -1.297,0 -3.184,0.3906 -5.785,1.4453 -1.891,0 -4.375,-3.211 -4.586,-4.6446 -0.078,-0.1211 -0.348,-0.0898 1.261,-1.9531 1.313,-0.8555 3.188,-0.7656 4.5,-1.164 1.723,0.1328 1.848,0 1.985,0 2.715,0.3476 5.722,1.3593 8.187,2.957 1.793,1.1484 3.571,2.4023 5.004,3.4687 2.578,1.9414 6.469,3.9493 5.879,8.1797"
         id="path3041"
         style="fill:#615e5e;fill-opacity:1;fill-rule:evenodd;stroke:none" /><path
         d="m 126.852,88.0078 1.609,-0.1562 11.191,-0.1328 c 0.739,0.1015 1.504,0.1914 2.27,0.289 l 30.621,0 c 0.332,-1.1172 0.687,-2.0234 1.016,-2.6211 1.742,-3.2226 4.961,-4.8984 7.48,-7.2031 2.731,-2.0234 5.371,-3.4844 7.211,-3.4844 1.234,0 2.055,0.3828 3.945,2.5 0,1.6406 -3.535,6.9531 -6.242,10.8008 l 14.969,0.0078 c 1.937,-2.2031 3.91,-4.4219 5.84,-6.7109 2.008,-2.3828 3.418,-5.0469 5.211,-7.3125 0.968,-1.0508 1.285,-1.7305 1.582,-2.1055 2.695,-3.4375 6.336,-7.4375 9.777,-9.0156 0.563,1.4883 2.145,4.1406 2.145,4.4687 0,0.7383 -4.731,6.2539 -5.719,7.5703 -0.727,3.0196 1.574,7.293 4.008,7.293 1.07,0 2.3,-1.4336 3.449,-2.1758 l 3.683,-2.2382 c 0.379,-0.2305 4.918,-2.4258 6.68,-2.4258 1.973,0.2617 2.039,0.1328 3.617,0.1328 5.481,1.4023 8.575,8.3672 12.637,8.8594 0.789,0.1015 1.543,0.5273 2.234,0.6093 2.164,0.1328 2.082,0.0039 2.223,-0.0312 2.117,0.1953 4.281,-0.8555 4.281,-3.0586 0,-2.8633 -3.293,-7.4688 -6.402,-8.5234 -1.988,-1.2891 -2.836,-2.0704 -3.41,-2.6446 -0.313,-0.3125 -1.106,-1.0508 -1.106,-1.9219 1.172,-2.5703 1.516,-3.3515 1.664,-4.0234 7.547,0.7539 15.27,5.1484 21.289,11.7266 2.965,3.2422 5.809,7.4453 7.938,11.5234 l 46.07,0.0039 c -6.746,-1.4922 -13.265,-4.7305 -17.05,-9.625 6.746,1.5625 13.132,2.793 19.867,3.5508 3.281,-0.2656 5,-0.4766 6.691,-0.9531 1.695,-0.4766 6.942,-2.4688 9.242,-2.4688 l 2.731,0 c 1.265,-2.3359 -2.621,-4.5664 -3.754,-4.5664 -1.762,0 -3.899,0.6719 -5.969,1.2305 -0.82,0.2148 -1.539,0.5742 -2.23,0.8398 -1.004,0.3789 -2.278,0.543 -3.297,0.7422 l -2.793,0.4766 -4.309,0 c -0.328,0 -3.125,0.3828 -3.914,0.3672 -4.656,-0.1641 -7.359,-1.9063 -12.437,-2.9571 1.339,-0.539 2.636,-0.1562 3.968,-0.6836 1.282,-0.5078 2.68,-0.8359 3.817,-1.2656 7.367,-2.8125 15.289,-4.625 22.644,-5.3633 l 4.481,0.1289 c 0.926,0.1368 1.976,0.3946 2.894,0.4961 6.973,0.7891 14.055,6.3907 21.098,11.4453 -8.086,3.8868 -15.566,6.9024 -23.59,8.2852 -0.59,0.0977 -1.18,0.207 -1.773,0.3203 l 25.547,0 2.812,-1.082 c 2.238,-1.1875 4.609,-2.5039 6.816,-3.8399 0.192,-1.4179 -0.179,-2.2265 -0.527,-2.707 -0.922,-1.2617 -3.09,-3.4766 -4.324,-3.8711 -2.367,-0.7383 -5.149,-2.3906 -7.484,-3.8555 -3.172,-1.9726 -6.375,-4.1914 -9.465,-6.3945 -2.254,-1.6094 -5.016,-3.0156 -7.25,-3.8711 -0.989,-0.3633 -5.075,-1.6328 -6.75,-1.6328 l -5.098,0 -1.863,0.2305 c -6.477,0.6914 -13.399,2.0078 -20.008,4.164 -2.254,0.7383 -4.523,1.4297 -6.711,2.2344 -2.398,0.8906 -6.75,2.8438 -7.082,2.8438 -0.328,0 -1.699,-0.6563 -2.605,-1 -0.887,-0.3438 -1.813,-0.7891 -2.633,-1.0547 -7.285,-2.418 -14.957,-4.5899 -22.239,-5.9219 l -6.66,-1.1836 c 2.379,-1.8398 5.102,-3.0742 7.699,-3.0742 4.458,0 9.481,3.5 13.942,3.8125 l 4.613,-0.2617 17.371,-3.8164 c 2.371,-0.6407 5.215,-1.0508 7.68,-1.0508 2.137,0 2.258,0.0469 4.918,0.5742 0.726,0.1328 1.937,1.0039 2.266,0.9922 1.628,-1.9102 0.449,-3.6758 -0.407,-4.9102 -0.902,-1.2968 -2.406,-1.4961 -2.8,-2.664 -0.301,-0.875 -0.586,-1.75 -0.864,-2.6289 l -5.125,-0.0313 c 0.016,0.6602 -0.023,1.3047 -0.14,1.9453 -0.286,0.0117 -1.848,-1.1601 -2.95,-2.0156 l -17.976,0.0703 c -1.746,2.1953 -3.469,4.8242 -6.043,7.0899 -1.481,-0.3985 -3.094,-0.6446 -4.508,-1.0899 -2.234,-0.707 -4.523,-1.4453 -6.711,-2.2344 -0.691,-0.25 -1.297,-0.6093 -2.004,-0.8398 -1.644,-0.543 -3.383,-0.707 -4.926,-1.1016 -6.316,0.0039 -10.203,5.1172 -13.961,8.293 -2.898,-2.0039 -5.41,-3.3164 -8.039,-4.6602 -0.781,-1.7421 -2.269,-3.7539 -4.078,-5.496 l -26.328,0.039 c 0.84,0.8477 1.711,1.6524 2.598,2.4102 -0.403,0.7031 -0.473,1.6289 -1.082,2.0078 -2.828,1.7578 -6.754,3.8125 -8.977,5.4336 -0.433,-0.2735 -0.765,-0.7539 -2.402,-1.4883 -3.981,-2.3008 -7.988,-3.4766 -11.68,-4.168 -3.808,0.1328 -3.941,0 -4.066,0 L 182.41,54.832 c -2.762,0.5274 -5.531,0.9883 -8.297,1.1875 -2.367,0.1797 -3.16,0 -4.871,0 l -7.109,-0.3945 -5.649,-0.6602 -7.558,-0.5664 c 1.82,-2.0507 4.101,-4.2109 6.289,-6.4336 l -12.703,0.043 c -1.157,1.4844 -2.149,3.0313 -2.844,4.7617 -0.426,1.086 -1.008,2.1328 -1.008,3.1836 0,1.2149 1.61,4.0352 3.059,4.8907 0.457,0.2617 1.547,0.6992 1.875,0.6992 l 5.519,-0.2617 9.473,0.9179 c 0.332,0 3.488,0.6602 3.816,0.6602 l 8.02,0.9219 c 2.637,0 2.703,0.1289 3.031,0.1289 l 4.481,-0.3946 14.543,-3.289 c 0.984,-0.2657 2.046,-0.4102 2.953,-0.5586 1.449,-0.2305 4.133,-0.3594 4.461,-0.3594 3.898,0 6.949,0.7656 10.992,2.3281 -0.465,1.3321 -2.039,1.2383 -2.719,1.3555 l -13.953,4.0781 c -1.449,0.6602 -2.891,1.1836 -4.301,1.711 -0.984,-1.2266 -2.633,-3.2579 -4.23,-3.1602 l -10.918,1.5781 -10.254,-0.1328 -2.231,-0.293 c -5.625,-0.4296 -10.535,-1.2187 -15.121,-2.0234 -11.707,-2.0547 -25.179,-5.6719 -35.652,-6.6602 -3.816,-0.3593 -5.27,-0.6406 -11.449,-0.7578 -0.8558,2.5664 0.425,4.3516 1.297,5.3711 1.543,1.8242 3.312,3 5.234,4.6602 0.953,0.8242 1.996,1.668 3.031,2.375 4.11,2.8594 9.09,5.6133 13.563,7.3711 2.664,1.0351 5.394,2.1875 7.851,3.0429 -0.734,0.0704 -1.648,0.1993 -5.203,0.3321 l -25.121,2.8945 -3.5976,0 -2.586,0.2656 -9.8632,-0.1328 -5.1329,0.3594 c -1.5781,0.1172 -3.3125,0.3633 -4.875,0.6602 -1.8398,0.3437 -3.7265,1.0546 -5.5351,1.6601 -0.4336,0.1524 -1.9414,0.8633 -3.2578,1.7891 l 60.9926,0.0273 z M 236,68.5156 c -2.598,0 -6.492,-0.8047 -7.594,-4.6523 -0.215,-0.7578 -0.301,-1.9258 -0.301,-2.2539 0,-0.3281 0.532,-2.6446 1.184,-4.3399 0,-1.6289 3.848,-5.2617 5.84,-6.1992 1.84,-0.4765 0.621,-0.5273 5.672,-0.707 3.187,-0.1172 6.789,3.2422 6.906,7.0351 -0.875,4.3399 -3.031,8.1172 -5.43,9.3164 -0.261,0.1329 -2.839,1.668 -3.714,1.668 L 236,68.5156 z m -68.449,10.7813 -9.231,-0.3906 -9.859,-1.1836 c -3.223,0 -14.508,-2.5664 -15.277,-2.7969 -3.602,-1.1172 -7.586,-2.2695 -10.926,-3.5547 -3.992,-1.5469 -8.485,-3.625 -12.403,-6.8906 0.149,-0.1563 0.458,-0.1758 2.172,-0.1758 10.606,0.9219 21.45,3.6367 31.84,5.5781 2.516,0.457 14.821,2.9727 16.035,2.9727 l 13.348,1.2265 c -2.102,2.4024 -3.805,3.8907 -5.699,5.2149"
         id="path3043"
         style="fill:#615e5e;fill-opacity:1;fill-rule:evenodd;stroke:none" /><path
         d="m 132.367,128.008 c 0.735,-2.785 1.785,-5.574 3.227,-8.028 1.019,-1.742 2.461,-4.898 4.832,-5.328 1.773,0.063 1.918,0.496 1.918,0.825 l -0.66,4.339 c 0,0.329 0.101,2.172 0,4.801 l -1.207,3.391 7.761,0 0.024,-2.09 0.789,-6.957 c 0,-3.172 3.457,-15.348 3.719,-16.023 0.972,-2.512 2.3,-5.9849 5.16,-7.6646 0.808,-0.457 3.258,-2.2929 4.406,-2.2929 0.922,2.8125 -1.402,6.8047 -1.945,7.8595 l -1.399,2.988 c -1.992,3.555 -3.496,7.11 -3.496,7.438 0,0.328 -0.625,2.183 -0.84,3.234 -0.898,4.426 -1.547,9.055 -2.496,13.5 l 16.809,0.008 c -0.035,-0.195 -0.055,-0.313 -0.055,-0.367 l -0.394,-5 0.261,-6.184 c 0.067,-1.051 0.528,-2.953 0.528,-3.285 0,-0.328 -0.067,-1.715 0.347,-3.168 0.231,-1.43 0.098,-1.832 0.18,-3.676 0.031,-0.656 0.394,-1.707 0.394,-2.035 l 0.79,-8.418 c 0,-1.9883 0.71,-5.3906 1.523,-7.9297 l -30.621,0.0625 c 1.277,0.1563 2.562,0.3242 3.785,0.5508 0.465,0.082 4.004,0.9023 4.004,2.3828 l -1.512,3.1641 c -0.594,0.3789 -3.062,2.6914 -4.148,2.6914 -0.328,0 -5.332,-0.8242 -7.965,-1.086 l -3.805,-0.3593 -9.992,-0.2657 c -1.914,0.2657 -2.441,0 -2.769,0 -0.329,0 -3.004,0.1289 -3.407,0.2618 l -20.6677,0.2656 c -6.5937,-0.4961 -13.5625,-0.9922 -20.1875,-2.961 1.6289,-0.457 4.7344,-1.1171 5.0625,-1.1171 l 18.1485,-0.793 28.3832,-2.7344 -60.9926,0 c -1.1641,0.7891 -2.1758,1.7695 -2.1758,2.6719 0,1.8555 3.5391,5.0781 5.0508,5.375 1.0195,0.1992 1.9883,0.8203 2.8789,1.2305 4.8672,2.2187 16.8125,4.5078 22.2578,4.5078 l 9.2739,0.527 2.148,-0.265 -6.3086,2.074 c -1.9727,0.512 -4.0781,1.219 -6.1836,1.746 l -23.0235,7.496 c -4.207,1.317 -8.582,2.484 -12.8906,3.914 l -11.8398,4.078 c -3.3828,1.153 -6.8321,2.137 -10.2539,2.895 -1.8086,0.39 -3.8242,0.722 -5.7813,1 -1.5625,0.23 -3.2851,0.347 -4.8906,0.535 -0.125,0.762 -0.0586,1.492 0.1211,2.172 l 108.1248,0.043 z m 139.004,0 c -2.176,-0.758 -4.344,-1.738 -6.492,-2.707 -1.547,-0.707 -2.902,-1.895 -4.512,-2.813 -0.871,-0.511 -1.793,-0.843 -2.469,-1.269 -7.531,-4.699 -15.144,-9.215 -22.757,-9.559 -4.934,-0.215 -4.965,0.426 -7.086,0.84 -1.481,0.293 -2.914,0.965 -4.196,1.57 -0.937,0.43 -1.929,1.153 -2.898,1.5 -0.875,0.297 -1.887,0.641 -2.625,1 -1.332,0.657 -2.598,1.461 -3.731,2.024 -2.089,1.015 -7.921,3.195 -10.832,3.195 -0.332,0 -4.25,-2.168 -6.121,-3.465 -3.324,-2.32 -8.254,-6.844 -8.265,-11.054 -0.215,-0.61 -0.086,-0.672 -0.086,-1.86 0.097,-1.515 0.933,-3.797 1.804,-5.164 1.68,-2.8163 3.278,-4.6913 4.821,-6.5351 1.605,-1.8945 3.285,-3.7968 4.996,-5.7226 l -14.969,0.0195 c -1.355,1.9219 -2.504,3.4805 -2.894,4.0235 -2.153,2.9765 -4.348,6.2656 -5.383,9.3237 -1.004,2.942 -2.172,5.77 -2.946,8.547 -1.671,5.969 -2.656,12.082 -3.722,18.047 l 100.363,0.059 z m 39.477,0 c -0.36,-0.844 -0.692,-1.692 -0.969,-2.445 -2.219,-5.969 -3.027,-11.954 -3.637,-17.649 l 0.262,-10.1406 c 0.445,-2.5195 0.449,-5.0117 1.148,-6.4726 4.664,10.4372 6.246,17.5312 8.727,26.7302 0.691,1.547 0.168,4.301 3.789,3.446 0,-0.329 0.102,-5.293 -0.426,-7.235 -1.332,-4.883 -2.777,-10.719 -4.34,-15.7811 -0.789,-2.5507 -2.035,-5.0859 -3.281,-7.3554 -0.629,-1.1328 -1.012,-1.2149 -0.289,-2.7266 1.727,0 7.902,12.1911 7.902,12.1911 2.223,5.524 4.59,11.399 6.399,17.578 0.558,1.461 1.137,2.868 1.496,4.215 0.195,0.727 0.859,2.973 1.543,5.598 l 8.394,0.047 c -0.148,-0.664 -0.281,-1.348 -0.332,-1.938 l -0.312,-2.234 -0.473,-4.867 -0.48,-4.02 c 0,-1.051 -1.063,-7.441 -1.098,-7.539 -0.48,-2.457 -1.465,-5.301 -1.629,-6.137 3.946,4.36 6.84,8.356 10.16,12.434 1.875,2.301 3.942,4.895 6.098,7.047 1.805,1.93 1.727,3.008 1.727,3.336 0,1.492 -0.375,2.832 -1.125,3.969 l 16.234,-0.051 c -1.609,-0.973 -3.375,-2.219 -3.77,-2.5 -3.336,-2.367 -10.898,-7.477 -14.843,-12.59 -3.649,-4.738 -7.528,-9.438 -11.082,-13.7266 3.433,1.5426 7.144,3.4066 10.168,5.5586 4.472,3.176 9.113,7.484 13.683,11.184 1.219,0.968 4,2.754 5.301,3.414 l 2.336,1.062 c 1.578,1.973 2.281,2.27 2.512,2.731 l 0.316,2.808 c -0.316,0.801 -0.637,1.489 -0.93,2.024 l 22.754,0.035 c -0.551,-0.106 -1.121,-0.25 -1.543,-0.445 -1.269,-0.594 -2.601,-1.149 -3.789,-1.833 -0.242,-0.14 -3.207,-2.082 -3.207,-2.832 l 12.254,-0.914 c 0.305,0 4.82,0.504 7.109,1.024 1.965,0.441 4.032,1.297 6.356,2.246 2.379,0.973 4.086,1.738 5.57,2.711 l 7.973,0.043 c -0.059,-0.02 -0.117,-0.082 -0.176,-0.145 -0.98,-1.883 -1.379,-2.527 -1.887,-2.859 -6.234,-4.012 -13.128,-7.652 -19.621,-9.082 -3.519,-0.774 -4.32,-1.254 -10.14,-1.367 -3.684,-0.067 -5.403,0.343 -7.114,0.492 l -3.41,0.43 c -1.648,-0.528 -1.957,0.097 -2.238,0.097 l -6.184,-0.23 c -0.707,0 -6.066,-1.699 -7.992,-2.836 -0.722,-0.426 -1.687,-0.656 -2.359,-1.133 -1.957,-1.363 -3.809,-3.117 -5.504,-4.625 1.519,0.043 3.226,0.305 6.516,0.305 l 2.894,-0.164 c 0.656,0 1.34,0.027 1.949,-0.235 1.903,4.176 6.668,8.129 10.813,8.032 1.711,-0.036 2.957,-0.266 3.285,-0.266 0.328,0 1.379,-0.649 1.871,-0.879 2.844,-1.348 4.707,-4.871 4.805,-7.473 0.23,-0.953 -0.481,-3.855 -0.66,-4.363 -2.157,-6.0664 -7.067,-10.0429 -12.067,-10.0429 -4.078,0 -9.254,3.3359 -9.394,7.9257 l -8.231,0.6252 c -0.328,0 -6.394,-0.078 -8.926,-0.8205 -1.136,-0.3281 -1.742,-1.6484 -3.007,-2.539 -0.954,-0.6719 -1.977,-1.2344 -2.997,-1.8203 6.075,-0.5235 12.223,-1.5157 18.352,-3.7969 l 8.395,-3.2305 -25.547,0 c -1.774,0.336 -3.567,0.6914 -5.34,0.7617 l -3.688,0.1328 c -2.379,-0.0703 -4.847,-0.375 -7.289,-0.9101 l -46.07,0.0156 c 1,1.9063 1.84,3.793 2.465,5.543 0.367,1.039 3.215,10.8592 3.215,12.1252 0,0.328 0.257,2.879 0.523,4.203 l 0.133,6.848 c -0.328,2.605 -0.766,5.421 -2.164,7.789 -0.852,1.445 -2.238,2.73 -3.66,3.55 l 27.793,-0.058 z m 64.914,-19.375 c -1.746,0 -3.75,-0.442 -3.75,-3.156 1.332,-6.2934 4.703,-7.6293 8.09,-7.6293 1.742,0 3.75,0.4296 3.75,3.1563 0,2.5 -1.559,6.148 -4.914,7.332 -0.985,0.344 -2.848,0.297 -3.176,0.297 z M 88.6758,119.816 c -0.7891,-1.398 4.875,-3.464 6.4844,-4.105 1.1211,-0.445 2.0546,-1.035 3.1562,-1.496 1.6445,-0.707 3.4686,-1.285 4.9996,-1.926 l 9.075,-3.996 c 2.781,-0.805 4.011,-1.641 5.261,-2.234 2.02,-0.969 4.422,-1.61 6.446,-2.582 1.082,-0.528 1.242,-0.762 1.867,-0.762 1.051,0 2.699,1.316 2.699,2.633 0,2.101 -3.207,4.328 -5.031,5.48 -2.613,1.645 -6.113,3.461 -8.828,4.297 -5.762,1.531 -10.418,2.238 -14.8753,2.949 l -11.2539,1.742"
         id="path3045"
         style="fill:#615e5e;fill-opacity:1;fill-rule:evenodd;stroke:none" /><path
         d="m 34.0625,168.008 c 2.3555,-2.875 4.8164,-6.367 7.9805,-8.278 3.2539,-1.957 7.2851,-3.781 10.4883,-5.785 2.3007,-1.449 4.7031,-3.027 6.9726,-4.343 l 2.8945,-1.528 c 0.7071,-0.414 1.3829,-1.152 2.0079,-1.5 2.5976,-1.476 4.9921,-3.383 7.5937,-5.125 1.3633,-0.922 3.0273,-1.761 4.625,-2.883 0.6445,-0.328 1.4688,-0.683 3.3008,-2.511 l 3.9062,-2.184 c 1.3985,-1.164 8.7696,-5.375 12.0782,-5.375 1.7929,0.617 2.6289,1.957 2.6289,2.238 0,1.313 -14.1211,12.223 -14.6797,12.582 -6.6914,4.391 -14.9492,10.036 -21.7071,13.555 -5.3125,2.762 -11.1718,5.887 -16.3984,8.238 -1.8437,0.825 -3.8047,1.762 -5.7109,2.418 -0.5703,0.192 -1.1524,0.368 -1.7383,0.528 l 27.4531,-0.047 c 0.7891,-0.625 1.5547,-1.215 2.293,-1.778 2.0195,-1.531 10.1836,-7.871 11.418,-7.148 0,0.641 -3.7149,5.016 -7.1055,8.938 l 11.8086,-0.012 c 1.8476,-2.418 3.8125,-4.797 5.8672,-7.211 1.5273,-1.793 4.7929,-5.336 6.8867,-6.906 -0.0977,1.906 0.6562,2.632 -0.2305,4.82 -1.2695,3.082 -2.5937,6.207 -3.8476,9.336 l 10.4253,-0.039 0,-9.602 0.793,-5.246 1.266,-6.59 c 0.59,-2.664 1.418,-6.183 2.77,-8.699 0.097,-0.195 1.421,-4.902 3.527,-4.902 1.051,0 2.168,2.433 2.168,3.488 0,0.328 0.394,2.352 0.66,3.543 l -0.262,9.344 c 0.164,3.586 -0.562,6.867 -0.972,10.402 -0.313,2.742 -0.715,5.527 -1.114,8.266 l 6.551,-0.004 c 1.012,-6.735 2.528,-15.637 2.789,-17.133 l 4.953,0 3.047,13.914 c 0.141,1.016 0.313,2.09 0.512,3.164 l 7.422,0.055 -0.164,-5.004 c 0.207,-1.848 0.39,-1.949 0.39,-2.281 0,-2.793 1.399,-6.797 2.395,-9.321 l 16,0 0,16.602 8.531,0.004 0,-16.602 73.555,0 -2.602,16.602 3.836,0 0.688,-4.391 0.636,4.391 3.747,0 -2.461,-16.602 74.941,0 0,16.602 8.605,0 0,-14.254 c 0.579,0.836 4.52,2.551 7.071,4.34 1.398,0 2.484,-3.965 2.531,-4.16 l 0.914,-2.532 10.348,0 c -0.114,1.11 -0.508,2.875 -0.508,3.207 0,0.329 0.211,1.477 -0.133,3.618 l 0.164,4.273 c 0.067,1.461 0.758,4.078 0.758,4.406 0,0.164 0,0.512 0.086,1.063 l 5.984,0.039 c -1.843,-10.465 -0.875,-20.735 6.743,-32.004 1.476,1.285 2.628,3.101 2.386,4.605 -0.988,6.059 -5.308,16.332 -5.308,22.243 0,1.953 0.23,3.648 0.605,5.191 l 5.906,-0.035 c -0.019,-7.653 3.903,-16.903 3.153,-21.449 0.297,-1.934 0.117,-4.668 0.832,-6.762 2.98,6.371 2.586,17.41 2.922,28.141 l 4.476,0.07 c -0.14,-9.203 0.039,-18.438 -2.992,-25.699 4.988,8.101 5.891,16.675 5.824,25.699 l 4.512,0 c -0.32,-9.809 -3.785,-19.793 -6.488,-27.774 7.32,8.457 6.988,10.047 8.839,20.969 l -0.109,6.805 24.992,0 c -0.324,-0.258 -0.593,-0.442 -0.8,-0.613 l 0,-2.29 c 1.113,-0.3 4.601,1.145 4.929,1.145 2.895,-2.766 -1.461,-5.02 -2.777,-5.348 -1.039,-0.246 -2.61,-0.757 -3.695,-1.269 -0.743,-0.344 -1.36,-1.024 -1.985,-1.449 -1.019,-0.692 -3.594,-3.641 -4.828,-3.641 -0.461,3.008 3.484,4.488 3.484,8.023 -2.66,1.051 -9.031,-7.003 -9.425,-7.66 -1.629,-2.679 -3.309,-5.433 -4.61,-8.031 -0.789,-1.594 -1.383,-3.426 -1.976,-5.137 -0.309,-0.886 -0.692,-2.386 -0.692,-2.718 8.672,5.21 32.211,26.308 42.946,26.308 1.578,0 2.269,-0.523 2.961,-0.523 1.726,0 3.765,0.75 4.351,3.14 l 6.375,0.063 c -0.019,-0.043 -0.031,-0.094 -0.039,-0.133 -0.875,-3.352 -3.773,-7.445 -7.16,-10.195 0.207,-0.641 1.105,-0.457 2.058,-0.375 1.973,0.164 2.309,-0.133 2.637,-0.133 0.641,0 2.906,-1.672 3.035,-2.047 0.364,-1.02 1.141,-2.656 1.11,-3.676 -0.051,-1.578 0.129,-1.707 0.129,-2.039 -0.426,-1.39 -0.383,-1.965 -0.582,-2.457 -2.829,-6.758 -11.254,-12.515 -17.723,-14.523 -0.406,-1.371 -1.941,-2.989 -3.207,-4.375 l -7.973,-0.047 c 0.125,0.039 0.254,0.125 0.375,0.211 0.352,0.246 1.293,1.636 1.293,2.308 0,1.664 -5.965,2.442 -6.773,2.442 -5.309,0 -8.488,-1.528 -14.301,-3.453 -1.008,-0.332 -1.91,-0.93 -2.809,-1.266 -0.171,-0.062 -0.351,-0.125 -0.535,-0.18 l -22.754,-0.062 c -0.453,0.801 -0.839,1.277 -1.039,1.277 -0.449,0 -1.511,-0.566 -2.652,-1.262 l -16.234,-0.015 c -1.157,1.797 -3.207,3.058 -6.168,3.644 -0.137,0 -0.262,-0.129 -1.977,0 -1.402,-0.011 -3.75,-1.261 -4.242,-3.074 -0.051,-0.191 -0.102,-0.394 -0.149,-0.605 l -8.39,0.035 c 0.879,3.328 1.797,7.324 1.797,9.515 l 0,5.493 c 0,0.379 -0.809,6.394 -2.043,6.394 -3.336,-3.043 -6.34,-6.101 -9.254,-8.91 -3.664,-3.703 -6.145,-6.449 -7.082,-8.488 -0.559,-1.215 -1.184,-2.625 -1.746,-3.981 l -27.793,-0.023 c -0.91,0.582 -1.84,0.918 -2.657,0.984 -2.636,0.164 -2.699,0.293 -3.031,0.293 -0.328,0 -2.414,-0.328 -3.433,-0.558 -0.856,-0.2 -1.711,-0.45 -2.563,-0.739 l -100.363,0.02 c -0.285,1.535 -0.574,3.117 -0.887,4.683 -0.351,-1.468 -0.965,-3.812 -1.152,-4.711 l -16.809,0.028 c -0.058,0.273 -0.121,0.555 -0.183,0.832 -0.774,3.453 -2.043,7.246 -3.532,10.707 l -0.183,-6.379 -0.043,-3.004 0.019,-2.156 -7.761,0 -4.289,12.023 c -1.907,4.852 -3.122,9.832 -3.774,14.512 -0.461,-2.555 -1.023,-5.172 -1.351,-7.688 l -0.297,-2.902 -0.129,-5 c 0,-0.328 0.312,-1.551 0.343,-2.238 0.172,-2.664 0.602,-5.684 1.387,-8.68 L 24.2422,128.008 c 0.4453,1.597 1.5703,2.957 2.3633,3.855 0.6054,0.692 2.0742,1.121 3.0742,0.813 1.0469,1.289 2.1016,2.117 3.0078,2.363 2.0391,0.574 7.4648,0.824 7.793,0.824 l 5.8437,-0.043 c -2.0898,2.035 -4.0664,4.028 -5.6133,5.77 -6.6406,7.531 -14.8789,18.402 -15.8828,25.769 -0.0117,0.215 -0.0195,0.426 -0.0234,0.637 l 9.2578,0.012 z M 434.465,150.32 c -2.41,0 -5.149,-1.543 -7.543,-3.507 L 419.844,141 c -1.114,-0.914 -1.731,-1.145 -1.731,-1.969 l 2.614,-0.945 c 1.113,-0.215 3.062,-0.949 3.367,-0.949 l 2.73,0.492 c 1.528,0 5.844,1.941 6.758,2.492 0.871,0.52 1.805,1.348 2.688,2 0.441,0.32 2.835,2.461 2.835,3.149 0,2.132 -2.089,4.304 -2.226,4.398 -1.02,0.715 -1.527,0.652 -2.414,0.652 z m -8.254,7.743 c -2.078,0 -4.414,-0.79 -6.309,-1.579 -5.886,-2.472 -11.816,-7.773 -17.332,-12.101 -0.695,-0.551 -5.715,-4.629 -5.715,-5.238 1.129,-0.649 6.153,0.269 8.731,0.82 2.402,0.504 4.855,1.277 7.008,2.137 2.461,0.976 4.754,2.75 7.129,4.511 1.453,1.071 2.66,2.305 3.875,3.524 1.261,1.258 2.418,2.73 3.449,3.968 0.226,0.618 1,1.911 1,2.594 l -1.836,1.364 z M 50.2852,144.922 c 0.3789,-0.996 1.2656,-2.012 1.9531,-4.059 0,-0.328 -1.1797,-2.273 -2.0469,-3.468 -0.293,-0.477 -1.4453,-1.598 -2.1601,-1.727 8.082,-0.891 16.0937,-2.91 24.3242,-4.441 C 65,135.82 57.4766,141.762 50.2852,144.922"
         id="path3047"
         style="fill:#615e5e;fill-opacity:1;fill-rule:evenodd;stroke:none" /><path
         d="m 47.2656,208.008 c 1.5586,-1.735 4.0078,-3.625 7.0742,-3.348 l -0.2109,3.348 9.4024,0 c 0.0546,-0.953 0.1015,-1.688 0.0546,-2.25 0.7071,-2.434 1.9532,-2.809 3.6485,-2.809 2.4492,0 1.625,0.688 2.3984,3.336 l 0.5274,1.723 5.414,0 c -0.5976,-2.742 -1.2383,-6.051 -1.2383,-6.309 l -0.3945,-6.64 c 0,-0.332 0.082,-2.59 0.2656,-4.809 0.293,-3.551 1.7657,-9.102 4.3828,-14.234 1.6954,-2.754 3.5704,-5.403 5.5821,-8.02 l -11.8086,0.012 c -1.836,2.137 -3.582,4.129 -4.586,5.32 -4.1093,4.836 -14.1406,14.977 -23.5898,21.551 -2.9414,2.234 -8.3945,6.492 -8.7187,6.492 -0.5938,-1.594 6.8671,-11.207 8.5312,-13.262 6.7656,-7.589 15.0781,-14.847 21.7578,-20.105 l -27.4531,0.004 c -1.7539,0.527 -3.5625,0.894 -5.3945,1.367 0.3828,-0.43 0.7656,-0.887 1.1523,-1.355 l -9.2578,-0.012 c -0.1094,6.012 3,8.472 8.418,9.027 l 1.914,0.133 c 2.1367,0 7.6055,-1.453 9.0078,-1.973 -7.5664,9.262 -16.1757,21.379 -21.4531,32.852 l 24.5742,-0.039 z m 56.4024,0 c -0.074,-1.707 -1.582,-4.317 -3.652,-5.68 -2.1176,-0.301 -3.3363,1.637 -4.0433,2.406 -0.9375,1.004 -1.9258,1.879 -2.918,2.813 L 92.7539,195.91 c 0.5586,-7.105 2.4844,-14.23 5.3359,-21.375 0.3165,2.164 0.7618,4.297 1.1407,6.238 0.1289,0.672 0.625,1.657 0.625,1.985 0,1.512 2.9065,9.465 3.0545,9.84 0.707,1.711 1.59,3.531 2.414,5.175 1.184,2.352 3.059,5.442 4.422,7.973 0.32,0.602 1.055,1.481 1.914,2.207 l 2.832,0.055 1.016,-7.625 c 0.265,-5.395 0.773,-9.887 1.137,-14.344 0.277,-3.402 1.101,-10.121 1.101,-10.449 0,-1.035 0.387,-3.992 0.914,-7.531 l -6.551,-0.051 c -0.086,0.586 -0.168,1.16 -0.25,1.734 -0.562,3.934 -1.48,11.633 -1.48,11.965 l -1.106,14.797 c -1.73,-3.406 -2.609,-7.004 -3.546,-10.176 -0.231,-0.773 -0.231,-1.613 -0.391,-2.238 -0.742,-2.813 -1.074,-5.942 -1.762,-9.203 -0.035,-1.074 -0.301,-2.703 -0.301,-3.032 l 0,-3.847 -10.4253,0 c -2.3555,5.926 -4.4532,11.832 -5.4063,17.523 -0.1992,1.215 -0.6094,3.145 -0.6094,3.477 l -0.3945,10.187 c 0.3789,2.887 0.7852,5.926 1.2773,8.801 l 15.9532,0.012 z m 60.867,0 0,-10.332 8.305,10.332 5.305,0 -13.61,-16.797 0,-23.203 -8.531,0 0,39.996 8.531,0.004 z m 85.793,0 -5.933,-40.004 -3.747,0.004 2.832,19.531 -7.207,0 3.051,-19.531 -3.836,0 -6.261,39.996 21.101,0.004 z m 57.406,0 c 5.504,-6.52 9.172,-10.836 9.172,-10.766 l -0.093,10.766 8.667,0 0,-40.004 -8.605,0.004 0,22.785 c 0.004,0.105 -6.082,7.418 -14.332,17.281 l 5.191,-0.066 z m 56.371,0 c 1.821,-3.094 2.872,-9.836 3.223,-11.371 0.723,0.945 1.453,1.914 1.867,2.847 1.789,4.032 6.024,8.071 9.789,8.071 5.094,0 6.696,-5.989 7.844,-10.082 0.297,-1.035 0.836,-2.942 0.836,-3.27 l 0.789,-5.394 c 0,-2.942 0.625,-7.274 0.922,-10 l 1.254,-9.856 c 0.41,0.527 1.375,1.836 1.375,2.16 0,0.332 0.984,2.973 1.476,4.387 0.411,1.199 1.149,2.363 1.813,4.512 l 0,12.07 -0.789,7.055 c 0,1.707 0.062,0.949 -2.027,1.359 -3.368,0.676 -7.192,4.289 -7.961,7.563 l 8.41,-0.051 c 1.601,-1.195 3.683,-1.903 6.051,-1.903 1.703,0 3.406,0.586 4.359,1.961 l 9.609,-0.058 c -0.945,-1.824 -1.765,-3.59 -2.504,-5.348 -2.031,-4.851 -5.703,-14.504 -5.703,-14.812 0,-0.707 -1.98,-6.215 -2.574,-7.68 2.602,0.426 3.992,2.387 6.086,4.805 2.84,4.828 4.137,8.965 6.172,13.199 l 1.601,3.453 1.309,2.957 c 0.258,0.566 0.969,1.859 1.738,3.359 l 4.828,0.067 c -1.402,-2.637 -2.839,-5.235 -4.109,-7.914 -1.332,-2.813 -2.402,-5.789 -3.711,-8.653 0.684,0.313 1.41,0.942 2,1.336 2.391,1.168 4.301,1.852 5.602,3.051 0.492,0.445 0.289,1.43 0.457,2.199 0.23,1.075 0.679,2.172 1.187,3.176 1.77,3.465 3.973,5.656 6.438,6.863 l 10.301,-0.058 c 2.531,-1.367 4.496,-3.926 4.875,-7.75 0.183,-3.082 -1.219,-6.348 -1.715,-7.399 -1.578,-3.386 -5.621,-6.828 -8.942,-7.437 -3.043,-0.231 -3.168,-0.363 -3.308,-0.363 -1.7,0.265 -4.098,0.855 -5.692,2.168 -1.117,0.906 -2.59,3.226 -2.918,3.226 -3.277,-1.64 -5.238,-2.289 -6.996,-3.703 -1.496,-1.199 -3.203,-2.691 -4.601,-3.941 -1.086,-0.973 -2.391,-1.817 -3.375,-3.118 -1.368,-1.808 -3.293,-3.765 -4.332,-5.105 0.101,-3.074 0.179,-3.195 -0.426,-5.109 2.988,1.777 5.234,3.179 8.324,4.757 0.953,0.493 2.16,0.84 3.293,1.266 0.574,0.215 1.27,0.758 1.879,0.973 3.172,1.101 6.582,2.273 9.84,2.976 3.433,0.758 4.894,1.27 7.906,1.27 2.137,0 1.602,0.324 4.625,-0.828 0.758,-0.278 1.449,-1.149 2.215,-1.461 0.457,-1.442 1.164,-3.02 1.25,-4.485 0.164,-3.023 -0.133,-3.422 -0.133,-3.75 0,-0.59 -0.434,-1.691 -0.586,-2.175 l -6.375,-0.012 c 0.082,0.281 0.137,0.656 0.152,1.066 l 0.36,4.11 c -1.828,1.714 -2.856,1.484 -4.27,1.484 -5.965,0 -19.847,-4.18 -24.125,-6.723 l -24.992,0.063 -0.125,8.207 c -0.793,6.937 -4.383,38.93 -13.484,16.828 -3.149,-7.652 -6.262,-14.598 -7.239,-22.91 -0.082,-0.695 -0.117,-1.41 -0.121,-2.141 l -5.906,0.016 c 1.922,8.012 7.559,11.847 3.938,25.097 l -0.868,0 c -3.003,-8.851 -6.082,-17.031 -7.496,-25.082 l -5.984,-0.015 c 0.086,0.512 0.25,1.265 0.57,2.254 0,2.976 6.375,18.722 6.657,19.578 1.003,3.012 1.988,6.039 2.765,9.082 0.391,1.527 0.969,4.422 0.969,4.75 0,0.566 1.101,2.859 2.398,4.402 l 4.035,-0.066 z m -234.144,-40 c 0.172,0.894 0.367,1.847 0.574,2.765 l 0.578,2.899 c 0.246,1.824 0.278,3.738 0.867,5.512 0.528,1.578 2.227,3.355 3.887,4.406 1.789,0.418 1.922,0.062 2.004,-0.57 l -0.488,-15.012 -7.422,0 z m 239.973,0 c 0.183,5.742 0.578,11.465 1.847,16.308 l 1.938,0.875 2.172,-0.425 c -1.184,-5.258 -1.395,-10.996 -1.481,-16.739 l -4.476,-0.019 z m 7.308,0 c -0.012,1.547 -0.047,3.109 -0.101,4.687 l 1.871,1.942 2.375,0.363 c 0.34,-2.297 0.441,-4.637 0.367,-6.988 l -4.512,-0.004 z M 406,206.105 c -1.551,-1.683 -1.871,-2.136 -2.266,-2.464 -0.328,-0.282 -2.785,-1.809 -2.785,-2.532 0.266,-1.054 0.395,-5.336 0.586,-6.839 1.188,3.793 2.942,8.105 4.797,11.671 L 406,206.105 z m 27.441,-2.761 c -2.878,0 -4.605,-0.789 -4.605,-4.274 0.398,-1.535 0.699,-2.742 1.008,-3.449 1.562,-3.516 5.043,-4.512 7.676,-4.512 1.839,0 4.339,0.559 4.339,3.817 0,4.801 -3.238,8.418 -8.418,8.418 z m -199.277,3.386 5.586,-8.515 5.055,8.515 -10.641,0 z m 11.656,-2.601 -4.82,-7.824 2.969,-4.535 1.851,12.359 z m -11.828,-0.664 c -0.164,0.012 1.668,-11.957 1.668,-11.957 l 2.84,4.734 -4.508,7.223 z m 5.754,-9.195 -2.687,-4.571 5.773,0 -3.086,4.571"
         id="path3049"
         style="fill:#615e5e;fill-opacity:1;fill-rule:evenodd;stroke:none" /><path
         d="m 18.457,248.008 c 0.1797,-1.324 0.5118,-2.828 1.1993,-4.641 0.4101,-0.82 0.7148,-1.836 2.9257,-2.172 0.6602,0.082 1.3594,-0.074 1.9336,-0.386 6.5782,-3.633 9.4453,-10.743 12.2891,-16.25 1.3828,-2.664 2.5,-5.579 4.0312,-8.243 0.5586,-1.003 1.2852,-2.257 1.9766,-3.211 1.1367,-1.546 2.7148,-3.082 4,-4.609 0.1406,-0.168 0.293,-0.344 0.4531,-0.519 l -24.5742,0.031 c -1.2461,2.746 -2.3047,5.418 -3.1211,8.008 -0.543,1.711 -1.7969,5.347 -1.7969,5.679 0,1.758 3.2579,5.59 4.8672,5.59 3.7071,-5.051 7.1016,-9.097 10.8399,-12.894 0.0781,0.527 -1.9336,4.246 -3.0391,6.351 -0.457,0.887 -0.7851,2.02 -1.3945,3.024 -0.8047,1.332 -1.7735,2.808 -2.7617,4.203 -0.5079,0.722 -4.6289,6.156 -6.5352,6.156 -2.7227,-2.812 -2.5703,-4.422 -2.9492,-6 -0.1953,-0.789 -2.875,-5.312 -4.8789,-5.312 l -2.79299,5.621 c -0.13282,0.425 -2.66797,8.945 -2.66797,11.476 0,0.332 -0.45703,2.18 -0.57422,3.219 -0.11328,1.035 -0.32813,2.223 -0.34375,3.422 -0.01563,0.539 -0.02344,1.039 -0.02344,1.504 L 18.457,248.008 z m 25.2227,0 c 0.8476,-1.336 1.8516,-2.559 2.8672,-3.735 1.5469,-1.773 3.0429,-3.863 4.5586,-5.605 l 3.4179,-3.945 c 0.4922,-0.575 1.2969,-1.246 2.1485,-1.778 0.2656,1.996 0.957,1.196 0.957,2.102 0,0.328 -2.332,6.773 -3.2539,10.207 l -0.6992,2.754 15.293,0 c -0.7422,-2.676 -1.3672,-5.352 -1.9141,-8.016 -0.6094,-3.043 -1.9258,-8.961 -1.9258,-9.289 0,-1.512 -1.0195,-8.133 -1.1016,-9.531 l -0.0507,-2.367 c -0.0821,-1.711 -0.4922,-3.555 -0.5586,-6.844 -0.0235,-1.609 0.0508,-2.918 0.1133,-3.973 l -9.4024,0.02 -0.1016,1.597 c -1.0195,4.407 -4.4335,9.762 -7.7734,13.84 -3.9961,4.852 -8.8789,9.504 -13.2031,14.469 -1.0547,1.203 -2.3164,2.727 -3.2852,4.074 -0.7226,1.004 -1.1523,2.258 -1.7929,3.032 -0.4493,0.527 -1.5352,1.687 -2.8008,2.98 l 18.5078,0.008 z m 39.1836,0 c -0.2031,-0.918 -0.3985,-1.875 -0.5977,-2.754 -0.1992,-0.887 -0.5625,-2.445 -0.5625,-2.777 l -0.7461,-6.504 c 1.5078,2.027 3.8711,4.07 6.0743,4.07 3.8789,0 6.0898,-2.203 8.789,-7.02 0.6719,-1.199 1.3906,-2.503 1.8867,-3.855 2.1016,-5.738 3.582,-11.617 4.945,-17.355 0.297,-1.25 1.02,-3.407 1.02,-3.735 0,-0.039 0,-0.082 -0.004,-0.125 l -15.9532,0.055 c 0.0235,0.121 0.0469,0.254 0.0704,0.387 0.2461,1.449 1.1523,4.027 1.1523,4.355 0,0.328 -3.1211,4.07 -5.5937,6.723 -0.9024,0.902 -2.6485,2.101 -3.7071,2.543 l -3.5898,-11.817 c -0.1446,-0.621 -0.3086,-1.363 -0.4727,-2.148 l -5.414,-0.043 2.414,7.879 c 0.4922,1.676 0.8906,3.414 1.0547,5.011 0.3477,3.27 0.2969,6.606 0.7383,9.864 l 1.1055,7.363 c 0.2929,1.957 0.8867,4.094 1.2656,6.051 0.1133,0.64 0.625,1.785 0.625,2.113 0,0.395 0.1015,0.973 0.2773,1.672 l 5.2227,0.047 z m 81.6677,0 0.004,-40 -8.531,0 0,39.996 8.527,0.004 z m 46.035,0 -32.421,-40 -5.305,0 32.172,39.996 5.554,0.004 z m 16.207,0 2.04,-13.223 9.16,10.453 -2.391,2.77 3.535,0 0.633,-0.731 0.629,0.731 3.434,0 -2.422,-2.77 9.031,-10.453 1.953,13.223 3.883,0 -5.93,-40 -21.101,0 -6.266,39.996 3.812,0.004 z m 47.274,0 C 284.832,235.176 298.734,218.652 307.734,208 l -5.191,0.008 c -10.316,12.398 -24.02,28.722 -33.453,39.941 l 4.957,0.059 z m 51.433,0 0,-40 -8.667,0 -0.344,39.996 9.011,0.004 z m 62.391,0 c 1.645,-2.305 3.652,-4.5 6.109,-6.649 -0.539,1.813 -1.753,4.211 -2.914,6.625 l 5.301,0.024 c 3.016,-5.371 7.039,-9.449 10.617,-15.153 l -1.496,4.5 c -2.316,3.981 -3.793,7.473 -4.957,10.696 l 7.242,-0.043 c 1.774,-5.195 3.774,-10.903 5.579,-17.781 l 3.644,-2.68 c -0.988,4.859 -1.828,8.539 -3.027,12.582 l -0.754,5.258 c -0.184,0.843 -0.379,1.699 -0.582,2.554 l 4.058,0.067 c 1.313,-5.996 2.86,-11.695 4.832,-16.195 1.243,6.308 2.047,11.593 2.364,16.226 l 3.086,-0.031 c -1.414,-6.375 -1.625,-12.567 -0.203,-17.871 2.793,6.101 6.066,11.98 9.078,17.89 l 5.246,-0.019 c -3.879,-8.602 -8.16,-17.07 -10.41,-23.36 l 2.488,2.364 c 8.894,5.32 15.121,12.402 18.558,21.035 l 20.872,-0.039 c -5.559,-9.434 -15.614,-18.582 -24.247,-23.824 -0.527,-0.313 -1.496,-0.688 -2.183,-1.133 -2.715,-1.758 -5.438,-3.242 -8.164,-4.477 -1.531,-0.691 -3.274,-1.875 -5,-2.679 -2.926,-1.153 -5.195,-1.633 -6.793,-3.063 -1.051,-0.937 -1.219,-2.762 -1.906,-4.062 -0.137,-0.254 -0.274,-0.512 -0.411,-0.77 l -4.824,0.008 c 1.199,2.277 2.547,5.129 2.547,6.519 0,0.817 -2.297,2.219 -3.203,2.219 -2.23,-3.062 -4,-5.953 -5.473,-8.762 l -9.609,0.024 c 0.48,0.75 0.769,1.644 0.769,2.765 0,5.266 -3.847,9.012 -9.074,9.012 -2.715,0 -5.527,-0.687 -5.527,-4.539 0,-3.027 1.289,-5.574 3.422,-7.207 l -8.41,-0.031 c -0.094,0.437 -0.141,0.816 -0.141,1.187 l 0.082,2.364 c 0.43,4.636 3.871,11.027 9.481,13.281 1.019,0.41 2.953,0.867 3.277,0.887 l 1.887,0 c -4.782,4.89 -11.188,10.015 -15.051,15.046 -1.281,1.68 -2.813,3.122 -3.731,4.5 -0.55,0.836 -1.039,1.75 -1.488,2.688 l 9.039,0.047 z m -276.211,-40 c 0.86,0.676 1.844,1.254 2.664,1.254 l 0.168,-1.254 -2.832,0 z m 248.41,0 c 0.703,0.902 1.465,1.519 2.141,1.519 0.703,0 1.336,-0.597 1.894,-1.539 l -4.035,0.02 z m 71.692,0 c 1.683,0.887 3.492,1.254 5.359,1.254 1.703,0 3.426,-0.407 4.942,-1.235 l -10.301,-0.019 z m -192.145,35.191 -9.004,-10.484 18.141,0 -9.137,10.484 z m -9.269,-12.929 9.269,-10.485 8.871,10.485 -18.14,0 z m 19.031,-2.598 -8.25,-9.664 5.871,-6.77 2.379,16.434 z m -19.262,-0.789 2.379,-15.516 5.477,6.645 -7.856,8.871 z m 9.5,-10.778 -6.113,-7.199 12.223,0 -6.11,7.199"
         id="path3051"
         style="fill:#615e5e;fill-opacity:1;fill-rule:evenodd;stroke:none" /><path
         d="m 29.8828,288.008 c 2.3985,-9.496 5.4375,-18.922 8.5781,-28.32 0.7071,-2.106 1.8438,-4.161 2.5508,-6.055 l 1.0547,-2.629 c 0.3945,-1.051 0.9531,-2.07 1.6133,-3.059 l -18.5078,0.063 c -2.4297,2.472 -5.5196,5.453 -6.0156,5.453 -0.7227,-0.922 -0.9532,-2.176 -0.8555,-3.754 0.0351,-0.535 0.082,-1.082 0.1562,-1.648 L 5.51953,248.008 c -0.01562,2.883 0.15235,4.379 0.15235,4.664 0,1.824 1.66406,7.32 1.74609,7.586 1.77734,5.129 6.44533,8.328 10.35543,8.328 4.0118,0 7.4844,-3.461 9.4102,-6.078 2.3164,-3.156 3.5547,-7.121 5.4102,-10.363 -1.6094,4.152 -3.1563,8.613 -4.5235,12.937 -1.4805,4.688 -2.7969,9.473 -4.0781,14.211 0.0508,0.242 -1.0234,4.449 -2.0469,8.715 l 7.9375,0 z m 16.211,0 c 0.9179,-1.813 1.8671,-3.563 2.8046,-5.211 0.0938,2.426 0.1407,4.019 0.1524,5.203 l 16.957,0.008 c -1.1719,-2.551 -6.2734,-14.848 -6.2734,-16.789 0,-0.707 2.0703,-2.739 2.7304,-3.528 1.3477,-1.597 2.6758,-3.55 4.0586,-5.414 1.1172,5.457 3.5977,11.332 5.7852,16.266 1.3477,3.062 2.7344,6.246 4.1445,9.43 l 4.6641,0.035 c -2.8125,-6.504 -5.2734,-13.168 -7.9297,-19.809 0.6133,0.946 1.0938,1.918 1.5703,2.789 0.9531,1.746 3.3945,4.965 3.3945,5.293 0,0.61 4.5079,6.668 5.7227,8.297 0.8164,1.094 1.7422,2.262 2.7305,3.465 l 14.5545,-0.035 0.012,-0.535 c -0.457,-1.27 -0.184,-3.184 -0.184,-4.481 0,-0.66 -0.211,-1.445 -0.261,-2.101 -0.528,-7.332 -1.1176,-11.985 -1.8403,-21.703 l -0.082,-3.684 c -0.0352,-0.66 -0.4219,-1.426 -0.7031,-2.086 -0.3789,-0.887 -3,-3.641 -4.2305,-3.641 -1.3867,1.614 -1.7773,3.551 -1.7773,3.879 0,1.399 -1.4805,4.801 -3.5508,4.801 -1.4961,0 -2.7422,-1.269 -3.6446,-3.328 -0.4609,-1.035 -0.6406,-2.172 -1.0039,-3.16 -0.3828,-1.043 -0.7148,-2.473 -1.0312,-3.942 l -5.2227,-0.019 c 0.9336,3.668 3.9102,10.801 4.2696,11.676 0.3789,0.886 0.5507,2 1.1093,3.578 0,0.328 0.2266,1.691 0.8672,3.187 1.4492,5.129 3.1367,10.481 5.8242,15.797 -1.8007,-0.641 -3.6836,-3.207 -4.6718,-4.375 -3.6797,-4.305 -6.2696,-8.594 -7.9805,-11.683 -1.332,-2.403 -3.1914,-4.594 -4.2617,-7.11 -1.5703,-3.703 -2.8125,-7.39 -3.8281,-11.07 l -15.293,0 -0.4375,1.719 c -1.0508,3.832 -2.4492,7.601 -3.6016,11.316 -0.8867,2.844 -1.9297,5.785 -3.5078,8.664 -1.9883,3.633 -4.8555,7.766 -7.5039,11.219 -1.9648,2.562 -3.9062,4.754 -5.8594,7.078 l 13.3282,0.004 z m 118.4372,0 0,-40 -8.527,0 0,39.996 8.527,0.004 z m 62.981,0 -2.785,-17.836 13.246,15.449 -2.039,2.387 3.39,0 0.293,-0.348 0.293,0.348 3.512,0 -2.031,-2.387 12.461,-14.66 -2.418,17.047 3.757,0 3.039,-21.176 c -0.003,0.004 6.821,-8.125 15.817,-18.828 l -4.957,0.004 c -6.449,7.613 -10.902,12.898 -10.918,12.898 l -1.914,-12.898 -3.883,0 1.738,11.758 -10.3,-11.758 -3.434,0 13.766,15.937 -28.793,0 13.765,-15.937 -3.535,0 -10.727,12.418 1.918,-12.418 -3.812,0 -2.004,12.816 -10.391,-12.816 -5.554,0 15.203,18.902 3.461,21.098 3.836,0 z m 97.968,0 0,-40 -9.011,0 -0.344,39.996 9.355,0.004 z m 57.133,0 c 2.828,-2.356 6.063,-5.375 6.817,-6.07 2.3,-2.133 6.316,-5.883 8.101,-7.696 0,3.559 1.223,9.379 2.157,13.742 l 5.117,0.024 c -4.188,-17.328 -1.262,-27.363 2.968,-39.93 l -7.242,-0.07 c -3.808,10.562 -4.261,18.215 -19.574,30.707 l -0.789,-4.555 c 0.777,-10.437 2.34,-18.754 7.703,-26.176 l -9.039,0.024 c -0.074,0.105 -0.144,0.262 -0.215,0.414 l -1.054,2.629 c -0.723,1.906 -1.473,5.566 -1.868,7.344 l -0.66,5.589 -0.441,10.856 c -0.25,4.867 -0.563,7.121 -0.875,10.394 -0.031,0.414 0.418,1.555 1.105,2.715 l 7.789,0.059 z m 35.203,0 c 0.395,-0.508 0.801,-0.985 1.286,-1.207 -0.145,0.398 -0.289,0.801 -0.434,1.199 l 11.168,0.008 -0.078,-1.86 c 0,-5.359 1.34,-9.488 3.488,-13.613 2.211,3.211 4.715,6.621 7.348,9.676 1.636,1.906 3.508,3.883 5.457,5.762 L 459,288.008 c 0.387,-1.36 0.688,-2.481 0.828,-3.028 0.379,-1.445 0.84,-2.925 0.84,-4.355 0,-0.332 0.395,-2.219 0.66,-3.281 l -0.133,-8.098 c 0,-1.086 -1.086,-4.891 -0.777,-5.262 3.66,1.77 10.051,3.551 14.324,3.551 l 3.746,0.262 c 1.254,-2.285 -1.035,-9.609 -1.433,-10.613 -1.149,-2.926 -2.532,-5.829 -4.078,-8.559 -0.122,-0.215 -0.247,-0.426 -0.375,-0.641 l -20.872,0.024 c 2.161,5.457 3.219,11.488 3.153,18.078 -0.063,5.625 0.746,15.844 -2.906,21.121 -11.364,-7.691 -21.629,-23.965 -25.004,-39.199 l -3.086,0 c 1.093,16.027 -3.614,24.273 -16.055,40.066 l 9.984,-0.066 z m -26.75,-40 c -1.195,2.461 -2.336,4.961 -2.613,6.832 l 1.934,2.019 2.722,-1.011 c 0.809,-3.032 1.938,-5.59 3.258,-7.91 l -5.301,0.07 z m 21.567,0 c -1.238,5.18 -2.746,10.601 -3.578,15.781 l -2.844,13.277 1.906,1.387 2.926,-0.937 c 1.859,-8.047 3.422,-19.246 5.648,-29.465 l -4.058,-0.043 z m 23.215,0 c 4.332,8.515 8.132,17.07 9.191,26.402 l 2.016,0.887 2.175,-1.848 c -0.136,-6.769 -3.898,-16.179 -8.136,-25.504 l -5.246,0.063 z m -196.231,35.574 -14.265,-16.93 28.66,0 -14.395,16.93"
         id="path3053"
         style="fill:#615e5e;fill-opacity:1;fill-rule:evenodd;stroke:none" /><path
         d="m 23.6328,328.008 c 0.8594,-2.703 1.7227,-5.406 2.3281,-8.039 0.4297,-1.891 1.0821,-3.84 1.7071,-5.649 0.5429,-1.593 1.1484,-3.152 1.8906,-4.73 0.3711,-0.024 -0.7852,3.215 -1.0938,5.094 -0.3984,2.418 -1.746,7.586 -1.746,10.336 l -0.5118,2.988 6.9453,0 c 0.0079,-0.016 0.0118,-0.063 0.0118,-0.098 0,-1.148 1.6797,-9.289 1.9257,-10.207 1.3477,-4.969 2.6993,-10.039 4.4258,-15.004 0.4102,-1.199 1.1524,-2.316 1.4961,-3.289 1.2891,-3.59 3.1172,-7.601 5.0821,-11.422 l -13.3282,0.02 c -1.3789,1.637 -2.7617,3.347 -4.1679,5.305 0.4062,-1.782 0.832,-3.563 1.2851,-5.34 l -7.9375,0.035 c -0.9219,3.82 -1.8047,7.691 -1.8047,8.793 0,0.332 -1.2304,6.304 -1.6758,9.465 -0.246,1.808 -0.8046,3.695 -0.6914,5.531 l -2.0898,16.211 7.9492,0 z m 26.8945,0 c 1.1211,-4.766 2.0508,-9.106 2.9336,-13.242 0.1446,-0.723 0.6289,-1.336 1.0899,-2.024 1.6015,4.949 3.1719,8.86 5.2109,12.66 0.4141,0.758 1.0703,1.84 1.5078,2.625 l 3.9375,-0.019 c -0.1445,-0.207 -0.2851,-0.43 -0.4297,-0.653 -0.9843,-1.546 -1.3281,-3.414 -2.3125,-4.597 -0.4453,-0.528 -4.1757,-10.629 -4.1757,-13.852 l -0.0508,-2.105 c 0,-0.988 -0.3125,-1.809 -0.211,-7.895 0,-0.656 0.3946,-1.773 0.3946,-2.105 l 0.1836,-3.219 c 3.0976,7.289 6.25,14.352 10.414,21.785 2.375,4.242 4.8164,8.481 7.4336,12.676 l 4.586,-0.035 c -0.543,-0.906 -1.0821,-1.844 -1.6289,-2.778 -3.6368,-6.179 -6.6211,-12.14 -8.9414,-18.714 -0.4258,-1.235 -1.004,-2.375 -1.5274,-3.536 0.9297,1.09 2.1016,2.739 3.1211,4.379 1.8398,2.993 4.4414,6.536 6.4492,9.215 1.3789,1.86 3.8008,4.578 5.3985,6.188 1.2968,1.301 2.4921,2.965 4.4296,4.316 0.3946,0.274 0.8047,0.57 1.2227,0.887 l 15.1915,0.043 c -0.699,-0.762 -1.356,-1.559 -1.934,-2.387 -1.382,-1.578 -2.191,-2.914 -2.9645,-3.262 l 57.7855,0 5.984,5.649 6.441,0 5.516,-5.762 53.469,0 0.922,5.762 3.898,0 -0.328,-2.063 1.273,2.063 2.532,0 -2.918,-4.797 10.508,0 -3,4.797 2.64,0 1.246,-1.934 -0.289,1.934 3.938,0 0.84,-5.762 68.421,0 6.028,5.762 6.484,0 5.336,-5.422 36.098,-0.008 c -0.266,0.137 -4.45,2.883 -7.391,5.434 l 12.145,-0.004 c 3.738,-2.008 8.527,-3.813 12.64,-5.305 2.699,-0.969 7.981,-2.422 8.309,-2.422 0.047,2.239 -9.598,5.867 -12.317,6.789 0.192,0.176 0.704,0.575 1.243,0.965 l 4.757,-0.027 c 3.02,-1.16 5.633,-2.301 7.864,-3.473 2.105,-1.097 6.019,-3.523 6.347,-3.523 0.723,0.816 -2.304,2.836 -2.718,3.246 -1.547,1.515 -3.211,2.64 -4.934,3.699 l 15.887,0.051 c 1.445,-4.215 3.82,-9.141 5.129,-11.789 1.375,3.332 2.336,7.601 3.324,11.765 l 8.746,0.024 c -2.266,-4.664 -5.656,-11.231 -5.941,-12.813 -0.125,-0.683 -0.493,-9.039 0.187,-10.293 3.231,8.887 6.844,16.176 10.141,23.063 l 5.453,0.043 c -0.063,-0.149 -0.125,-0.301 -0.192,-0.449 -3.582,-8.536 -7.367,-17.215 -10.785,-25.649 -0.246,-0.625 -0.422,-1.433 -0.594,-2.281 1.122,1.652 2.571,2.687 3.821,4.316 0.48,2.754 0.73,3.868 1.125,4.723 0.379,0.84 1.105,1.684 1.5,2.375 1.383,2.383 4.726,5.293 7.34,5.293 l 3.222,0.133 c 0.379,0 1.95,-0.711 2.063,-0.746 2.828,-1.082 4.515,-4.629 4.515,-7.211 0,-5.262 -5.148,-12.434 -11.117,-12.434 -2.597,0 -4.867,0.617 -7.242,3.551 -3.34,-2.453 -4.711,-6.867 -5.32,-10.332 l -0.051,-1.289 -11.168,0 c -0.762,2.117 -1.453,4.226 -1.855,6.281 l -2.473,6.379 -88.86,0 0,-12.664 -9.355,0.004 -0.109,12.664 -9.047,-8.539 -8.817,8.508 -44.773,0 1.812,-12.633 -3.757,0 -1.145,8.066 -6.867,-8.066 -3.512,0 8.844,10.402 -18.141,0 8.711,-10.402 -3.39,0 -7.121,8.332 -1.301,-8.332 -3.836,0 2.054,12.523 -61.199,0 0,-12.523 -8.527,0 0,12.535 -1.871,0 -9.34,-8.543 -8.699,8.504 -35.571,0 c 0.157,-4.75 0.204,-4.961 0.516,-6.734 l 0.121,-5.762 -14.5545,0 c 3.0312,3.722 6.6562,7.746 9.4179,10.957 0.4961,0.574 1.3086,0.945 1.9883,1.562 l -11.1445,0 c -1.2109,-2.113 -2,-4.304 -2.9688,-6.328 -0.9726,-2.035 -1.8945,-4.086 -2.7812,-6.148 l -4.6641,-0.043 c 1.9961,4.469 4.0313,8.965 6.0664,13.105 0.3946,0.825 0.8828,1.571 1.3633,2.285 0.7735,1.981 2.2188,4.192 3.2891,6.133 1.0156,1.84 2.2812,4.043 3.3672,5.785 1.0507,1.676 2.4179,3.372 3.6797,5.778 1.3476,1.597 2.7304,3.297 3.7773,4.957 -3.2031,-1.649 -5.7266,-2.227 -8.4727,-4.102 -5.2265,-3.57 -10.0468,-11.133 -14.0898,-16.691 -1.3828,-2.207 -2.5352,-4.492 -3.7695,-6.582 -1.25,-2.102 -2.3203,-4.227 -3.2891,-6.184 -0.707,-1.433 -1.5937,-2.879 -2.2852,-4.344 -0.0234,-0.05 -0.0507,-0.109 -0.082,-0.175 l -16.957,0.035 c 0.0312,2.844 -0.1328,3.273 -0.332,7.125 -0.3438,2.715 -0.461,5.512 -0.8711,8.258 -0.3633,2.496 -1.3985,7.156 -1.3985,7.488 0,1.066 -0.8203,4.715 -0.8867,5.012 -0.7578,3.422 -2.4023,9.785 -2.4023,10.113 0,0.121 -0.1758,0.926 -0.4375,2.031 l 7.8046,-0.027 z m 324.3007,-40 c 0.914,1.484 2.25,3.074 3.43,3.074 0.566,0 2.359,-1.367 4.355,-3.047 l -7.785,-0.027 z m 24.86,0 c 0.304,1.402 0.578,2.668 0.765,3.652 0.231,1.199 1.152,3.106 1.152,3.434 0,0.328 0.165,0.797 0.997,1.941 0.578,1.153 2.195,1.809 3.019,1.809 0.938,0 2.899,-0.922 3.375,-1.336 3.059,-2.66 5.488,-5.813 8.102,-8.641 0.246,-0.269 0.48,-0.574 0.718,-0.871 l -9.984,0.012 c -0.73,1 -1.492,1.953 -2.277,2.941 -0.274,-0.996 -0.524,-1.965 -0.75,-2.914 l -5.117,-0.027 z m 46.363,0 c 0.066,0.031 0.133,0.097 0.203,0.16 0.82,0.773 7.836,6.988 9.351,6.988 1.051,0 2.473,-4.113 3.395,-7.199 l -12.949,0.051 z m -3.996,22.539 c -1.938,0 -3.09,0.051 -3.09,-2.168 0,-1.414 0.879,-3.668 2.258,-4.867 0.804,-0.707 2.363,-1.512 2.691,-1.512 1.875,0 3.043,0.133 3.684,0.313 l 0.832,2.789 c -0.262,0.796 -0.547,1.949 -1.106,2.789 -0.496,0.738 -1.336,1.578 -2.074,2.089 -1.332,0.903 -1.945,0.567 -3.195,0.567 z m -208.813,10.484 6.637,-6.797 6.375,6.797 -13.012,0 z m -0.879,-2.593 -2.246,-14.461 7.988,8.48 -5.742,5.981 z m 14.641,-0.133 -5.613,-5.848 7.593,-7.82 -1.98,13.668 z m -7.254,-7.625 -9.27,-9.825 18.536,0 -9.266,9.825 z m 150.156,5 -58.633,-0.004 c -1.992,-1.723 -3.964,-3.699 -5.816,-5.563 l 0,-2.566 84.297,0 c -0.395,0.812 -2.27,2.16 -2.973,2.437 -3.703,1.512 -7.75,2.618 -11.531,3.899 l -5.344,1.797 z m -293.9138,0 c -0.7383,0.019 -3.3789,-4.621 -3.543,-4.899 l -1.9258,-3.238 52.3046,0 8.449,8.137 -55.2848,0 z m 73.1368,-0.012 -4.598,-4.371 0.004,-3.762 62.363,0 1.192,8.145 -58.961,-0.012 z m 82.019,0.012 1.184,-8.145 52.656,0 8.485,8.145 -62.325,0"
         id="path3055"
         style="fill:#615e5e;fill-opacity:1;fill-rule:evenodd;stroke:none" /><path
         d="m 51.7461,408.008 0.4922,-12.414 1.9726,-15.262 c 0,-0.328 1.3164,-6.184 1.3164,-6.512 0.9219,1.133 1.9727,5.262 1.9727,5.59 0,0.328 0.5625,1.746 0.875,2.653 1.1992,3.468 2.6641,7.683 4.0781,11.054 1.5157,3.602 3.0625,7.403 4.7383,10.656 0.6836,1.336 1.3477,2.829 2.0117,4.27 l 4.6563,-0.035 c -2.5235,-4.781 -4.7656,-9.492 -6.5899,-14.235 -1.4453,-3.769 -2.8125,-7.605 -3.8125,-11.453 -0.4297,-1.66 -0.4804,-3.515 -1.0039,-5.125 -0.414,-1.285 -0.707,-2.914 -1.2695,-4.363 0,-1.25 -0.7383,-3.281 -1.0547,-5.328 l -0.7891,-5.859 3.7461,-10.844 c 0.5899,1.09 1.6485,2.762 1.3868,4.535 0,2.894 2.0976,8.969 3.0507,11.023 0.8868,1.907 2.2032,3.684 3.1289,5.536 l 0.1329,7.054 c 0,0.328 0.0156,4.137 0.164,5.719 0.0977,1.199 0.4922,3.293 0.4922,3.621 0,4.473 1.9609,14.191 3.3281,19.746 l 5.25,-0.027 c -0.7539,-3.067 -1.3437,-5.957 -1.3437,-7.418 0,-0.332 -0.5274,-3.305 -0.918,-5 2.836,3.859 6.2188,8.406 9.668,12.433 l 4.6367,-0.015 c -6.6133,-6.977 -12.1367,-15.344 -14.0078,-22.793 -0.2305,-0.922 -0.8242,-2.649 -0.8242,-2.977 0,-0.328 -0.1289,-2.156 -0.3633,-3.277 2.4414,1.844 5.3242,3.559 7.5273,5.664 0.8555,0.805 1.2149,2.086 1.7227,3.09 3.3203,6.348 8.6133,13.84 12.4961,19.992 0.0586,0.094 0.1172,0.188 0.1797,0.285 l 4.723,0.016 c -0.071,-0.051 -0.11,-0.141 -0.11,-0.184 0,-0.332 -3.8083,-5.383 -5.6326,-8.062 -2.9257,-4.766 -4.8984,-8.149 -6.5117,-11.188 0.6055,0.547 1.7617,0.961 2.586,1.258 1.3828,0.508 2.6132,1.43 3.9453,1.973 1.5273,0.625 3.164,1.218 4.73,1.66 5.665,2.008 10.95,3.851 16.196,4.918 1.824,0.379 5.488,1.48 5.816,1.476 1.754,-0.293 2.024,-0.586 2.024,-0.914 0,-1.644 -3.485,-5.722 -3.996,-5.867 -2.942,-0.871 -5.852,-2.656 -8.926,-4.68 -3.059,-2.023 -6.567,-5.156 -9.246,-7.671 -2.453,-2.301 -5.8363,-5.719 -7.7621,-7.758 -4.6016,-4.852 -9.4023,-9.551 -13.8594,-14.125 -0.2773,-1.465 -0.6797,-2.156 -0.8632,-2.485 -0.9688,-1.711 -1.9258,-2.871 -3.0782,-4.347 -0.4922,-0.625 -0.4179,-1.563 -0.6836,-2.301 1.0782,0.809 2.0547,1.98 3.1875,2.883 l 5.1328,4.082 c 2.25,1.742 4.6719,3.304 7.0079,4.867 2.7773,1.84 5.7265,3.406 8.7813,5.133 0.875,0.492 2.043,0.871 3.031,1.398 1.461,0.789 7.184,3.641 7.789,3.641 1.383,-2.07 0.973,-3.461 0.266,-4.317 -2.516,-3.058 -5.414,-6.136 -8.027,-8.898 l -6.0513,-6.496 c -3.4023,-3.586 -6.5898,-7.246 -9.6484,-10.914 -0.7891,-0.953 -1.5625,-2.281 -2.3164,-3.285 -0.8047,-1.086 -1.4297,-2.203 -2.1055,-3.157 -1.5117,-2.14 -2.8398,-4.367 -4.1523,-6.613 l -4.586,-0.027 c 4.1133,6.633 8.6485,13.117 14,19.312 l 12.1489,13.981 c -1.399,-0.778 -2.8129,-1.649 -4.0317,-2.438 -2.5156,-1.629 -5.8242,-3.472 -8.2578,-5.215 -6.082,-4.355 -11.3047,-8.839 -15.6641,-13.558 -0.5078,-0.539 -1.1484,-1.481 -1.6601,-2.07 -1.3164,-1.497 -2.9453,-3.098 -4.1289,-4.641 -1.2813,-1.664 -2.4453,-3.477 -3.6524,-5.356 l -3.9375,-0.015 c 0.2618,0.488 0.4414,0.851 0.4414,0.976 0,0.329 -0.9218,4.274 -0.9218,4.606 0,1.512 -2.1094,8.012 -2.1563,8.176 -3.5195,10.293 -7.5117,20.82 -9.289,31.23 l -1.8399,12.098 -1.1172,14.332 c -0.3125,-3.168 -0.6094,-4.113 -0.6406,-9.406 l 0.4453,-16.579 1.3789,-15.914 0.461,-17.761 c 0.1328,-1.055 0.1328,-2.129 0.2968,-3.032 0.8164,-3.082 1.543,-5.984 2.1992,-8.754 l -7.8046,0.028 c -0.461,1.972 -1.1954,4.863 -1.7188,6.664 -0.4726,1.629 -1.2148,3.488 -1.7578,5.164 -2.3359,7.254 -6.7383,21.223 -6.7383,21.555 0,0.328 -0.2656,1.589 -0.4648,2.433 l -0.6875,-7.761 0,-6.512 0.4922,-10.328 c 0,-2.414 0.414,-5.879 0.875,-8.754 0.1015,-0.707 0.375,-1.934 0.4296,-2.418 l -6.9453,-0.043 -0.2422,1.406 c -0.2656,1.547 -0.2968,4.484 -0.2968,4.813 0,0.328 -0.2617,4.398 -0.5274,6.64 l 0.1328,12.633 c 0.2618,2.371 0.5274,7.035 0.5274,7.363 l 1.0508,7.102 c 0,0.328 1.1836,5.59 1.1836,5.922 0,0.328 1.3203,6.172 2.4023,9.097 0.2813,0.774 3.7969,4.778 5.2266,4.778 l 0.7851,-8.731 c 0.0039,-2.234 1.6797,-10.23 1.8438,-11.183 l 1.914,-7.313 -0.2031,2.434 -0.5898,14.469 0.3281,15.257 c 0,1.743 1.1836,6.817 1.2695,7.379 0.4336,2.543 1.1211,5.242 2.125,7.942 l 8.6094,-0.008 z m 314.1559,0 c 0.141,-0.207 0.282,-0.41 0.414,-0.613 3.567,-5.497 8.692,-12.102 14.664,-17.332 0.59,-0.508 1.375,-0.926 1.981,-1.274 2.769,-2.719 5.566,-4.644 8.016,-6.57 1.218,-0.953 2.328,-2.305 3.558,-3.078 1.68,2.754 0.18,6.125 -0.262,7.785 -0.937,3.519 -2.238,7.074 -3.503,10.66 -1.547,3.762 -3.239,7.305 -4.965,10.414 l 7.812,0.008 c 1.949,-4.028 3.594,-8.445 4.863,-12.399 0.329,-1.035 0.887,-2.238 1.235,-3.421 l 1.699,-6.133 c 0.332,0.879 0.852,2.629 0.852,2.957 0,0.328 0.793,2 1.183,2.886 -0.414,0.512 -1.355,0.645 -1.945,1.055 -1.152,0.805 -2.258,2.11 -2.75,3 -0.527,0.953 -0.781,2.133 -0.828,3.184 -0.067,1.316 0.129,1.976 0.129,2.308 0,0.328 0.414,1.246 0.562,1.918 0.321,1.395 1.184,3.067 2.289,4.617 l 17.59,0.028 c 0.359,-0.926 0.574,-1.789 0.641,-2.547 -0.215,-5.977 -3.977,-11.973 -8.762,-13.516 -0.66,-0.199 -1.465,-0.5 -2.09,-0.519 -1.226,-2.656 -1.68,-5.504 -1.68,-8.137 l -0.394,-3.746 0.133,-6.051 0.656,-5.922 0.859,-4.406 c 2.106,6.664 4.852,13.328 7.649,20.086 l 2.89,7.234 c 0.379,1 0.668,2.383 1.407,3.434 1.25,1.762 2.324,3.445 3.902,3.445 1.84,0 6.254,-5.73 7.039,-6.867 0.727,-1.035 1.289,-2.293 1.797,-3.297 1.859,-3.613 3.199,-8 3.352,-11.937 1.511,1.695 2.925,3.308 4.703,4.953 0.23,0.215 6.144,5.051 7.968,5.051 1.465,0 1.528,-2.571 1.61,-2.946 0.265,-1.203 0.758,-2.34 0.972,-3.554 0.297,-1.68 0.707,-5.094 0.707,-5.422 l 0,-9.067 -1.183,-8.949 c -0.477,-2.238 -1.051,-3.031 -1.051,-4.855 -0.777,-2.239 -1.183,-3.426 -1.242,-4.457 -1.953,-6.078 -4.363,-12.129 -6.828,-18.008 l -5.453,0 c 6.445,13.437 11.656,25.375 10.312,44.719 l -0.801,0.433 c -3.285,-0.086 -8.941,-2.898 -10.023,-6.082 -0.383,-1.121 -3.207,-18.601 -3.508,-20.926 -0.137,-0.101 -2.945,-8.593 -0.535,-8.207 2.555,7.02 4.762,14.203 7.367,21.18 0.594,1.594 0.348,4.617 2.75,4.699 0.383,0.012 2.133,-1.679 2.352,-1.894 -3.465,-10.078 -6.614,-20.258 -10.567,-30.164 -0.347,-0.871 -0.976,-2.215 -1.734,-3.766 l -8.746,0.008 c 0.988,4.137 2.012,8.187 3.508,11.082 2.086,11.254 4.562,31.926 0.98,39.723 -1.465,-4.782 -4.66,-18.833 -4.273,-22.965 -1.571,-1.528 1.98,-7.309 -3.09,-8.203 l -1.879,0.351 c 0.453,7.274 1.258,14.387 2.668,21.535 0.379,1.918 3.793,14.407 3.726,14.645 -0.808,2.773 -0.128,3.234 -3.23,3.945 -4.129,-9.047 -11.613,-25.734 -11.613,-35.547 0,-3.551 1.664,-7.347 2.453,-10.801 0.687,-3 0.898,-5.738 1.101,-8.804 0.086,-1.328 0.547,-3.078 1.196,-4.973 l -15.887,0.012 c -0.676,0.363 -1.359,0.765 -2.047,1.176 -2.039,1.218 -4.183,2.242 -6.191,3.16 -3.336,1.515 -6.832,2.844 -10.121,4.734 -1.086,0.625 -2.578,0.953 -3.68,1.66 -3.242,2.055 -10.281,7.196 -11.414,7.196 -0.789,-1.25 -0.063,-4.067 0.43,-5.481 0.41,-1.199 1.078,-2.449 1.718,-3.433 1.051,-1.629 2.524,-3.254 4.051,-4.7 0.957,-0.906 2.246,-1.765 3.324,-2.597 0.817,-0.578 1.739,-1.141 2.739,-1.684 l -12.145,-0.031 c -1.152,1.004 -2.113,1.972 -2.574,2.746 -1.727,2.863 -3.594,6.055 -3.594,9.062 0,0.329 -0.527,2.024 -0.527,2.352 l 0,5.559 c 0,1.562 1.875,7.281 4.801,7.281 0.937,0 3.418,-1.387 3.976,-1.668 l 4,-2.164 c -1.457,2.418 -2.82,4.922 -4.055,7.422 -0.164,0.328 -5.566,13.132 -5.566,14.367 0,1.742 2.977,5.59 5.066,5.59 0.329,0 5.18,-0.84 7.743,-1.481 3.207,-0.804 6.898,-2.586 9.515,-3.687 1.281,-0.543 2.442,-1.535 3.688,-2.289 2.355,-1.43 5.664,-3.36 7.843,-5.043 0.083,0.531 -1.578,2.457 -2.66,3.625 -4.328,4.656 -9.05,8.609 -14.855,12.8 -1.399,1.004 -3.563,0.5 -5.238,0.86 -0.676,0.148 -1.446,0.527 -2.235,0.707 -4.82,1.101 -10.41,3.719 -15.125,8.258 -1.664,1.593 -3.445,3.425 -4.875,5.351 -1.199,1.625 -2.324,3.426 -3.293,5.051 -0.578,0.973 -1.187,2.231 -1.664,3.379 -0.082,0.187 -0.566,1.23 -0.781,1.852 l 21.023,0.07 z m -350.2184,-80 -0.0117,0.094 c -0.1485,2.007 3.1211,5.863 4.9297,5.863 1.3828,0 2.6797,-4.863 2.7265,-5.047 0.1016,-0.313 0.2032,-0.629 0.3047,-0.945 l -7.9492,0.035 z m 73.8789,0 c 2.5508,1.887 5.4609,4.465 8.0898,5.867 0.9727,0.508 2.0625,1.398 3.1637,1.891 1.661,0.738 7.391,3.066 9.891,3.066 1.25,-2.535 -1.363,-5.918 -1.844,-6.426 -1.375,-1.504 -2.816,-2.922 -4.109,-4.375 l -15.1915,-0.023 z m 74.0625,0 3.383,3.191 3.058,-3.191 -6.441,0 z m 66.348,0 8.285,51.781 3.637,0 7.578,-51.781 -3.938,0 -1.566,10.558 -3.102,-4.8 3.711,-5.758 -2.64,0 -2.321,3.719 -2.269,-3.719 -2.532,0 3.551,5.758 -2.84,4.668 -1.656,-10.426 -3.898,0 z m 94.789,0 3.34,3.191 3.144,-3.191 -6.484,0 z m 62.547,0 c 0.691,0.531 1.429,1.027 1.605,1.027 1.098,-0.359 2.149,-0.719 3.152,-1.086 l -4.757,0.059 z m 19.296,79.617 c -2.367,0 -3.683,-1.07 -3.683,-3.617 0.496,-3.754 4.566,-7.25 7.18,-6.805 1.109,-0.23 2.019,-0.098 2.511,0.086 l 1.621,3.547 c 0,2.004 -2.316,5.684 -4.781,6.359 -0.89,0.231 -2.519,0.43 -2.848,0.43 z m -35.777,-36.961 c 3.434,-12.129 7.762,-22.582 17.914,-29.93 1.176,-0.851 6.863,-3.312 6.899,-3.351 1.363,-0.176 3.863,0.203 4.957,1.25 0.168,5.781 -17.805,17.945 -23.157,20.41 7.957,3.555 24.707,-12.598 27.102,-19.125 3.664,-1.984 0.516,5.086 0.816,6.859 -0.609,1.856 -0.742,2.614 -0.8,3.219 -5.286,4.313 -27.051,20.555 -33.731,20.668 z m -130.816,-3.684 -3.996,-24.554 7.418,0 -3.422,24.554 z m -3.082,-26.738 2.683,-4.437 2.825,4.437 -5.508,0 z m -131.731,48.703 c -2.535,-0.789 -5.121,-1.465 -7.406,-2.402 -3.3555,-1.383 -7.0664,-3.066 -10.1094,-5.137 -4.5859,-3.109 -10.3906,-7.761 -13.5625,-11.988 -1.793,-2.383 -3.8633,-5.746 -3.8633,-8.426 0,-0.328 0.1875,-1.949 0.5664,-2.66 0.7227,-1.363 1.7188,-2.797 2.9883,-2.797 1.3633,0 2.5781,0.934 3.2344,2.809 0.414,2.383 0.207,3.375 0.6015,4.066 1.6446,2.875 3.9375,5.426 6.2227,7.797 3.3398,3.453 8.0039,7.195 11.5703,10.254 2.9609,2.551 5.9686,5.523 9.7576,8.484"
         id="path3057"
         style="fill:#615e5e;fill-opacity:1;fill-rule:evenodd;stroke:none" /><path
         d="m 43.1367,408.008 c 0.9219,2.488 2.1094,4.972 3.6211,7.347 0.5899,0.938 3.5586,3.454 4.5586,3.454 l 0.4297,-10.801 -8.6094,0 z m 26.0664,0 c 0.2735,0.633 0.5508,1.219 0.8321,1.785 0.3476,0.691 0.7656,1.496 1.3593,2.121 -0.082,0.578 1.6524,3.309 2.5899,4.887 l 3.6015,6.183 c 1.5118,2.614 3.0938,5.496 4.9532,8.161 2.1054,1.363 2.914,1.867 3.7031,1.867 l -2.9649,-13.043 c -0.2656,-0.871 -1.996,-6.703 -3.2578,-11.903 l -5.25,-0.058 c 0.3243,1.351 0.6172,2.441 0.8438,3.164 -0.5977,-1.074 -1.1836,-2.149 -1.7539,-3.215 l -4.6563,0.051 z m 18.2227,0 c 0.5195,0.625 1.039,1.219 1.5625,1.797 3.0586,3.406 6.0859,6.386 9.707,9.562 1.7107,1.512 3.6997,3.106 5.5237,4.602 1.91,1.578 5.054,3.886 7.539,5.582 4.832,3.285 9.629,6.004 14.578,8.109 0.098,0.035 2.555,1.141 2.918,1.141 1.121,-2.863 -1.672,-6.238 -2.512,-6.781 -7.5,-4.899 -15.129,-13.219 -20.371,-20.11 -0.879,-1.16 -2.437,-3.101 -2.855,-3.836 l -4.723,-0.066 c 3.18,4.996 7.598,11.078 11.437,15.25 -2.191,-1.57 -4.511,-3.067 -6.402,-4.5 -2.433,-1.84 -4.6717,-3.863 -7.7694,-6.758 -1.3594,-1.258 -2.6992,-2.582 -3.9961,-3.957 l -4.6367,-0.035 z m 257.4532,0 c -0.051,0.074 -0.086,0.191 -0.098,0.273 -0.504,3.414 0.528,4.653 3.852,4.961 0.66,0.059 1.476,0.301 2.242,0.297 0.109,0.117 3.527,-0.016 3.641,0.082 -0.649,1.141 -1.508,2.445 -2.067,3.645 -1.66,3.519 -3.418,7.203 -4.996,10.839 -0.246,0.559 -0.695,1.817 -0.695,2.145 0,2.074 3.367,5.344 5.191,5.395 l 4.41,0.261 2.5,-0.129 c 3.024,0 9.477,-1.699 11.797,-2.672 5.426,-2.582 9.246,-4.98 13.391,-9.75 2.039,-2.335 4.68,-6.031 6.012,-8.664 l 1.839,-3.285 c 0.598,-1.074 1.168,-2.199 1.719,-3.347 l -7.812,-0.051 c -0.758,1.347 -1.52,2.621 -2.278,3.797 -1.843,2.859 -3.992,5.652 -6.933,8.269 -1.891,1.676 -3.891,3.309 -5.797,4.477 -3.317,2.019 -5.723,2.738 -7.516,3.246 -1.429,0.414 -4.883,1.402 -6.726,1.402 -1.117,-2.797 3.195,-10.504 3.312,-10.75 0.574,-1.168 1.106,-2.453 1.664,-3.426 1.711,-3.324 3.176,-5.257 4.371,-7.015 l -21.023,0 z m 56.027,0 c 1.496,2.062 3.434,3.926 5.082,4.578 1.465,0.574 3.25,0.828 4.696,0.828 2.105,-0.133 3.285,-0.648 3.91,-0.961 1.844,-0.949 3.172,-2.734 3.902,-4.504 l -17.59,0.059"
         id="path3059"
         style="fill:#615e5e;fill-opacity:1;fill-rule:evenodd;stroke:none" /><path
         d="m 365.617,421.816 c 2.434,0 9.227,-10.16 9.738,-10.949 2.188,-3.387 4.29,-7.035 6.657,-10.387 0.789,-1.121 2.074,-2.285 2.945,-3.453 1.379,-1.859 3.461,-3.511 5.324,-5.394 -0.261,-0.375 -2.582,-2.028 -2.812,-2.028 -1.102,0 -2.614,1.926 -3.383,2.649 -6.348,5.934 -9.875,13.836 -14.742,20.266 -1.957,2.597 -3.949,5.066 -6.531,7.113 -0.008,0.293 0.25,0.73 0.558,0.847 0.363,0.129 1.918,1.336 2.246,1.336"
         id="path3061"
         style="fill:#615e5e;fill-opacity:1;fill-rule:nonzero;stroke:none" /><path
         d="m 179.438,50.625 c 1.035,0 4.914,-3.1484 5.097,-3.2461 3.09,-1.6797 7.973,-3.9883 11.805,-3.9883 0.328,0 0.39,0.1641 0.652,0.1797 1.891,0.1328 4.016,1.0977 5.645,3.0508 1.496,1.8281 2.09,2.5586 3.699,2.5586 0.578,0 1.117,-0.9883 1.117,-1.5156 0,-1.0821 -0.652,-2.1875 -1.375,-3.2735 -0.445,-0.6758 -1.254,-1.289 -1.797,-1.9297 -2.957,-3.5039 -8.32,-5.5156 -12.152,-5.5156 -4.766,0 -10.512,1.9727 -14.902,5.375 -0.082,0.0625 -2.657,1.4805 -2.657,2.582 0,1.5782 2.532,5.7227 4.868,5.7227"
         id="path3063"
         style="fill:#615e5e;fill-opacity:1;fill-rule:nonzero;stroke:none" /><path
         d="m 189.086,478.422 c -0.488,2.523 1.156,4.965 3.68,5.453 2.523,0.492 4.964,-1.156 5.453,-3.676 0.492,-2.523 -1.156,-4.965 -3.68,-5.453 -2.519,-0.492 -4.961,1.156 -5.453,3.676"
         id="path3065"
         style="fill:#615e5e;fill-opacity:1;fill-rule:nonzero;stroke:none" /><path
         d="m 234.617,485.387 c -0.488,2.519 1.16,4.961 3.68,5.453 2.519,0.488 4.965,-1.156 5.453,-3.68 0.492,-2.519 -1.156,-4.961 -3.68,-5.453 -2.519,-0.488 -4.961,1.156 -5.453,3.68"
         id="path3067"
         style="fill:#615e5e;fill-opacity:1;fill-rule:nonzero;stroke:none" /><path
         d="m 279.535,479.578 c -0.222,2.559 1.668,4.817 4.227,5.039 2.558,0.227 4.816,-1.668 5.043,-4.226 0.222,-2.559 -1.672,-4.817 -4.231,-5.039 -2.558,-0.223 -4.816,1.668 -5.039,4.226"
         id="path3069"
         style="fill:#615e5e;fill-opacity:1;fill-rule:nonzero;stroke:none" /><path
         d="m 151.504,465.441 c -1.824,1.969 -2.188,4.418 -0.813,5.461 1.375,1.047 3.969,0.297 5.797,-1.672 1.825,-1.972 2.188,-4.421 0.813,-5.464 -1.375,-1.047 -3.969,-0.297 -5.797,1.675"
         id="path3071"
         style="fill:#615e5e;fill-opacity:1;fill-rule:nonzero;stroke:none" /><path
         d="m 326.891,465.695 c 1.824,1.973 2.191,4.418 0.812,5.465 -1.375,1.047 -3.969,0.297 -5.793,-1.676 -1.828,-1.968 -2.191,-4.418 -0.816,-5.464 1.375,-1.047 3.969,-0.293 5.797,1.675"
         id="path3073"
         style="fill:#615e5e;fill-opacity:1;fill-rule:nonzero;stroke:none" /><path
         d="m 214.867,114.164 c 2.61,0 11.153,-8.672 17.051,-8.672 2.734,0 3.508,2.059 5.586,2.059 0.898,0 1.246,-0.848 1.246,-1.324 0,-1.797 -1.754,-4.098 -2.871,-5.071 -2.188,-1.9099 -5.816,-3.1599 -8.371,-3.1599 -0.367,0 -0.445,0.1875 -0.738,0.2031 -1.36,0.0742 -3.282,0.5781 -4.735,1.3321 -4.058,2.0937 -8.121,4.8867 -12.347,7.2027 -0.309,0.164 -0.477,0.743 -0.477,1.11 0,2.203 3.305,6.32 5.656,6.32"
         id="path3075"
         style="fill:#615e5e;fill-opacity:1;fill-rule:nonzero;stroke:none" /><path
         d="m 277.227,123.414 c 1.984,0 6.019,-3.531 6.652,-5.281 0.594,-1.641 0.906,-3.449 0.961,-5.184 0,-0.304 0.254,-0.648 0.254,-1.011 0,-0.36 -0.723,-4.258 -0.723,-4.618 0,-0.363 -0.656,-2.172 -1.125,-3.347 -0.09,-0.254 -0.121,-0.731 -0.23,-1.145 -0.11,-0.433 -4.817,-12.035 -8.75,-12.035 -0.844,0 -1.586,0.6875 -1.586,1.3711 0,2.8164 5.484,6.8203 5.484,14.9409 0,0.36 -0.144,2.02 -0.144,2.379 0,0.36 -0.231,0.832 -0.34,1.282 -0.309,1.207 -1.258,2.793 -2.375,3.679 -1.297,1.028 -3.348,1.211 -3.348,2.762 0,1.625 2.957,6.207 5.27,6.207"
         id="path3077"
         style="fill:#615e5e;fill-opacity:1;fill-rule:nonzero;stroke:none" /><path
         d="m 286.887,45.6719 1.929,0 c 0.356,-0.4258 0.485,-0.9141 0.485,-1.1758 0,-1.9688 -2.606,-5.5703 -4.172,-6.2734 -0.809,-0.3672 -1.941,-0.4102 -2.824,-0.4454 -2.192,-0.0742 -4.469,-2.5234 -6.496,-4.1093 -1.364,-1.086 -4.332,-3.6953 -6.145,-4.2266 -0.137,-0.1016 -0.141,-0.2539 -0.289,-0.3476 -1.332,-0.6446 -3.723,-1.5352 -4.09,-1.5352 -0.773,0 -1.031,1.1953 -1.031,1.3984 0,1.6211 1.457,4.6133 3.277,5.625 1.567,0.8672 3.492,1.375 5.004,2.4453 3.188,2.3008 5.93,4.9532 9.137,7.125 0.496,0.3321 1.391,0.4297 1.922,0.6875 0.461,0.2227 2.629,0.836 3.293,0.8321"
         id="path3079"
         style="fill:#615e5e;fill-opacity:1;fill-rule:nonzero;stroke:none" /></g></g></svg>